<?xml version="1.0" encoding="UTF-8" standalone="no"?>
<svg
   width="512"
   height="512"
   viewBox="0 0 24 24"
   version="1.1"
   id="svg1"
   sodipodi:docname="tree1_darkgreen.svg"
   inkscape:version="1.4.2 (f4327f4, 2025-05-13)"
   xmlns:inkscape="http://www.inkscape.org/namespaces/inkscape"
   xmlns:sodipodi="http://sodipodi.sourceforge.net/DTD/sodipodi-0.dtd"
   xmlns="http://www.w3.org/2000/svg"
   xmlns:svg="http://www.w3.org/2000/svg">
  <defs
     id="defs1" />
  <sodipodi:namedview
     id="namedview1"
     pagecolor="#ffffff"
     bordercolor="#000000"
     borderopacity="0.25"
     inkscape:showpageshadow="2"
     inkscape:pageopacity="0.0"
     inkscape:pagecheckerboard="0"
     inkscape:deskcolor="#d1d1d1"
     inkscape:zoom="1.2617188"
     inkscape:cx="255.60372"
     inkscape:cy="256"
     inkscape:window-width="1440"
     inkscape:window-height="890"
     inkscape:window-x="-6"
     inkscape:window-y="-6"
     inkscape:window-maximized="1"
     inkscape:current-layer="svg1" />
  <path
     fill="#000000"
     d="M11 21v-4.26c-.47.17-.97.26-1.5.26C7 17 5 15 5 12.5c0-1.27.5-2.41 1.36-3.23C6.13 8.73 6 8.13 6 7.5C6 5 8 3 10.5 3c1.56 0 2.94.8 3.75 2h.25a5.5 5.5 0 0 1 5.5 5.5a5.5 5.5 0 0 1-5.5 5.5c-.5 0-1-.07-1.5-.21V21h-2Z"
     id="path1" />
  <path
     style="fill:#034c0f;stroke-width:11.8885;stroke-dashoffset:6;fill-opacity:1"
     d="m 234.9969,402.2291 c 0,-25.06501 -0.0892,-45.56815 -0.19814,-45.56253 -0.10898,0.006 -2.48332,0.7265 -5.27632,1.60195 -21.97648,6.88838 -48.0009,4.57467 -69.42337,-6.17214 -10.06106,-5.04724 -15.54699,-8.96834 -24.06235,-17.19871 -12.54714,-12.12723 -21.52235,-27.57669 -26.0361,-44.81717 -2.44221,-9.32817 -3.33282,-27.1964 -1.85822,-37.28126 2.73006,-18.67095 11.20424,-36.73948 23.29059,-49.65982 l 4.73065,-5.05707 -2.47375,-7.30124 c -4.09213,-12.07786 -5.13805,-19.73209 -4.67995,-34.2486 0.31745,-10.05965 0.80961,-14.23761 2.38076,-20.21053 4.46323,-16.96748 12.59866,-31.13747 25.08392,-43.690251 18.29901,-18.397979 40.90093,-27.822123 67.03002,-27.948989 15.09525,-0.07329 26.95508,2.468228 40.65807,8.71288 12.69133,5.783626 27.43766,17.581006 35.82491,28.66069 l 3.56656,4.71149 10.0356,0.48163 c 28.85402,1.38478 54.86886,12.25784 75.47299,31.5444 19.89293,18.62085 32.26988,42.66901 36.21179,70.35879 1.3193,9.26733 0.49429,30.13969 -1.54123,38.99246 -5.40455,23.50525 -15.24307,41.32449 -32.1528,58.23421 -17.29101,17.29101 -36.19218,27.44604 -60.6827,32.60298 -10.29014,2.16679 -34.10404,1.95494 -44.7083,-0.39772 -4.31959,-0.95835 -8.15364,-1.74244 -8.52012,-1.74244 -0.36647,0 -0.66631,24.96594 -0.66631,55.47987 v 55.47988 H 256 234.9969 Z"
     id="path2"
     transform="scale(0.046875)" />
</svg>
