<?xml version="1.0" encoding="UTF-8" standalone="no"?>
<svg
   width="512"
   height="512"
   viewBox="0 0 56 56"
   version="1.1"
   id="svg1"
   sodipodi:docname="tree2_lightgreen.svg"
   inkscape:version="1.4.2 (f4327f4, 2025-05-13)"
   xmlns:inkscape="http://www.inkscape.org/namespaces/inkscape"
   xmlns:sodipodi="http://sodipodi.sourceforge.net/DTD/sodipodi-0.dtd"
   xmlns="http://www.w3.org/2000/svg"
   xmlns:svg="http://www.w3.org/2000/svg">
  <defs
     id="defs1" />
  <sodipodi:namedview
     id="namedview1"
     pagecolor="#ffffff"
     bordercolor="#000000"
     borderopacity="0.25"
     inkscape:showpageshadow="2"
     inkscape:pageopacity="0.0"
     inkscape:pagecheckerboard="0"
     inkscape:deskcolor="#d1d1d1"
     inkscape:zoom="1.2617188"
     inkscape:cx="255.60372"
     inkscape:cy="256"
     inkscape:window-width="1440"
     inkscape:window-height="890"
     inkscape:window-x="-6"
     inkscape:window-y="-6"
     inkscape:window-maximized="1"
     inkscape:current-layer="svg1" />
  <path
     fill="#000000"
     fill-rule="evenodd"
     d="M31.8 36.237c-.917 3.427-.942 6.285-.074 8.574c1.595 4.208 7.2 5.419 7.464 6.522C39.454 52.437 31.726 53 27.358 53c-4.367 0-9.724-.833-9.724-1.667c0-.833 5.084-1.939 6.629-6.6c.9-2.717.802-5.838-.296-9.361a2.808 2.808 0 0 1-.845.128c-1.191 0-2.183-.73-2.397-1.694c-.822.54-1.852.86-2.969.86c-2.41 0-4.411-1.492-4.807-3.454a4.534 4.534 0 0 1-1.047.121C9.747 31.333 8 29.841 8 28c0-1.243.796-2.327 1.977-2.9c-.607-.379-1.001-.992-1.001-1.683c0-.24.047-.471.135-.686C8.442 22.434 8 21.92 8 21.333c0-.727.682-1.345 1.632-1.573C8.637 19.15 8 18.214 8 17.167c0-1.663 1.603-3.04 3.699-3.293a3.368 3.368 0 0 1-.772-2.124c0-2.071 1.965-3.75 4.39-3.75c.244 0 .484.017.718.05c.585-1.483 2.227-2.55 4.16-2.55c.537 0 1.051.082 1.527.233C22.052 4.179 23.646 3 25.56 3c1.958 0 3.58 1.232 3.86 2.837c.715-.716 1.78-1.17 2.97-1.17c2.155 0 3.902 1.492 3.902 3.333c0 .62-.199 1.201-.544 1.699c.177-.021.359-.032.544-.032c2.006 0 3.66 1.293 3.878 2.958a4.4 4.4 0 0 1 1.975-.458c2.156 0 3.903 1.492 3.903 3.333c0 1.255-.812 2.348-2.012 2.917c1.2.568 2.012 1.661 2.012 2.916c0 1.09-.613 2.059-1.56 2.667c.366.418.584.937.584 1.5c0 .216-.032.425-.092.624c1.8.853 3.019 2.493 3.019 4.376c0 2.761-2.62 5-5.854 5a6.68 6.68 0 0 1-2.362-.424c-.886.776-2.123 1.257-3.491 1.257a5.415 5.415 0 0 1-2.955-.85c-.42.357-.948.621-1.538.754"
     id="path1" />
  <path
     style="fill:#6aa166;stroke-width:11.8885;stroke-dashoffset:6;fill-opacity:1"
     d="m 225.48607,483.35155 c -30.17192,-2.07781 -60.0003,-8.13644 -62.93082,-12.78227 -1.33839,-2.12181 0.0607,-3.5722 7.89167,-8.18102 27.45774,-16.15989 38.78324,-26.34808 47.04321,-42.3191 7.06961,-13.66943 9.93494,-27.47882 9.86859,-47.56142 -0.0523,-15.81468 -1.41225,-25.92497 -5.56989,-41.40693 l -2.07391,-7.72271 -5.28634,0.4913 c -9.76712,0.90777 -18.89511,-3.39981 -22.77284,-10.74669 -1.0186,-1.92987 -1.97331,-3.63017 -2.12158,-3.77844 -0.14828,-0.14827 -2.55195,0.79282 -5.3415,2.09131 -7.30894,3.4022 -13.55362,4.79971 -21.4471,4.79971 -9.16384,0 -13.95799,-1.07384 -22.05243,-4.93956 -8.4624,-4.04144 -15.5484,-10.80598 -19.03107,-18.16772 -1.30849,-2.76591 -2.37936,-5.67169 -2.3797,-6.45728 -5.7e-4,-1.30377 -0.57224,-1.38196 -6.5546,-0.89656 -26.049425,2.11364 -45.857158,-19.34592 -36.934373,-40.01444 2.130829,-4.9358 6.511711,-10.00613 11.516893,-13.32938 l 4.283087,-2.84381 -3.136254,-3.10522 c -4.677682,-4.63138 -5.900499,-7.771 -5.454489,-14.00457 l 0.373922,-5.22606 -3.489675,-2.17263 c -4.730138,-2.94494 -7.16638,-8.17421 -5.852034,-12.56111 0.495927,-1.65525 2.004159,-4.11203 3.351628,-5.4595 2.630643,-2.63064 7.774426,-5.559 9.764623,-5.559 2.068023,0 1.364884,-1.26945 -1.991461,-3.5954 -10.252684,-7.10511 -14.159924,-20.0498 -9.266236,-30.69902 4.018402,-8.74451 15.153438,-16.76387 26.348099,-18.97567 2.61548,-0.51676 4.85068,-0.99369 4.96711,-1.05985 0.11644,-0.0662 -0.98978,-2.11555 -2.45826,-4.55421 -4.929897,-8.1869 -5.599842,-16.79265 -2.04942,-26.325697 1.36869,-3.674977 3.03759,-6.013777 7.39106,-10.357829 8.48431,-8.465948 17.80902,-12.221796 30.34326,-12.221796 h 6.55422 l 1.51992,-2.972136 c 5.5213,-10.796683 18.86161,-18.791575 32.96763,-19.757611 5.77891,-0.395762 12.88046,0.360559 16.46726,1.753778 1.02498,0.398131 1.387,0.143499 1.387,-0.975569 0,-2.949355 4.07167,-9.624232 8.32399,-13.645898 5.21003,-4.927432 12.10321,-8.327129 19.60068,-9.667001 11.10496,-1.984568 24.30768,1.793393 32.259,9.230926 3.90583,3.653447 8.76989,11.840212 8.76989,14.760721 0,1.996291 0.53136,1.852098 3.82205,-1.037163 3.85762,-3.387029 9.97381,-6.067194 17.21554,-7.543996 15.83941,-3.230116 32.97868,4.823319 39.3808,18.50433 3.44201,7.355412 3.48786,14.750124 0.13341,21.517959 l -2.3254,4.691646 6.75058,0.401034 c 15.60194,0.926872 28.54957,9.691759 32.23988,21.824762 0.75683,2.48828 1.45905,4.64812 1.56051,4.79968 0.10145,0.15155 2.25985,-0.50982 4.79643,-1.46972 5.80093,-2.1952 15.94207,-2.93763 21.74228,-1.59177 10.8968,2.52845 20.3559,9.58313 24.39419,18.19339 2.78661,5.94148 2.9402,15.94778 0.33185,21.6192 -2.11274,4.59382 -8.15059,11.17245 -12.70215,13.83984 -1.86764,1.09451 -3.3957,2.10056 -3.3957,2.23567 0,0.13512 1.52806,1.14117 3.3957,2.23568 4.55781,2.67105 10.59368,9.25151 12.69446,13.83983 2.65537,5.79959 2.46243,15.76018 -0.41785,21.57155 -2.18681,4.41224 -4.66622,7.44485 -9.21846,11.27531 l -2.5048,2.10765 1.98705,2.92809 c 2.67388,3.94018 3.83435,8.63356 3.24088,13.10735 l -0.49083,3.70008 4.5106,2.54563 c 5.85205,3.3027 12.43337,9.52003 16.20175,15.3057 18.66018,28.64934 -3.95161,64.23691 -42.4759,66.85068 -7.3747,0.50035 -16.28121,-0.55599 -22.15189,-2.62729 -3.013,-1.06305 -3.25121,-1.01836 -6.34076,1.18948 -15.05242,10.75675 -36.01701,12.18741 -52.03636,3.55105 l -3.64976,-1.96765 -3.87966,2.3806 c -2.13381,1.30933 -5.40546,2.85365 -7.27033,3.43183 -3.81972,1.18423 -3.74775,1.02591 -6.42299,14.12861 -2.73778,13.40896 -3.5044,22.45083 -3.04789,35.94801 1.24269,36.74059 14.18286,54.35187 57.35162,78.05426 20.06468,11.01677 20.69177,13.71005 4.16815,17.90131 -24.44295,6.20001 -84.62288,9.93558 -120.38576,7.47274 z"
     id="path2"
     transform="scale(0.109375)" />
</svg>
