<?xml version="1.0" encoding="UTF-8" standalone="no"?>
<svg
   width="512"
   height="512"
   viewBox="0 0 512 512"
   version="1.1"
   id="svg1"
   sodipodi:docname="car_4_yellow.svg"
   inkscape:version="1.4.2 (f4327f4, 2025-05-13)"
   xmlns:inkscape="http://www.inkscape.org/namespaces/inkscape"
   xmlns:sodipodi="http://sodipodi.sourceforge.net/DTD/sodipodi-0.dtd"
   xmlns="http://www.w3.org/2000/svg"
   xmlns:svg="http://www.w3.org/2000/svg">
  <defs
     id="defs1" />
  <sodipodi:namedview
     id="namedview1"
     pagecolor="#ffffff"
     bordercolor="#000000"
     borderopacity="0.25"
     inkscape:showpageshadow="2"
     inkscape:pageopacity="0.0"
     inkscape:pagecheckerboard="0"
     inkscape:deskcolor="#d1d1d1"
     inkscape:zoom="1.2617188"
     inkscape:cx="256.39627"
     inkscape:cy="328.9164"
     inkscape:window-width="1440"
     inkscape:window-height="890"
     inkscape:window-x="-6"
     inkscape:window-y="-6"
     inkscape:window-maximized="1"
     inkscape:current-layer="svg1" />
  <path
     fill="#000000"
     d="M135.2 117.4L109.1 192h293.8l-26.1-74.6c-4.5-12.8-16.6-21.4-30.2-21.4H165.4c-13.6 0-25.7 8.6-30.2 21.4zm-95.6 79.4L74.8 96.3C88.3 57.8 124.6 32 165.4 32h181.2c40.8 0 77.1 25.8 90.6 64.3l35.2 100.5c23.2 9.6 39.6 32.5 39.6 59.2v192c0 17.7-14.3 32-32 32h-32c-17.7 0-32-14.3-32-32v-48H96v48c0 17.7-14.3 32-32 32H32c-17.7 0-32-14.3-32-32V256c0-26.7 16.4-49.6 39.6-59.2zM128 288a32 32 0 1 0-64 0a32 32 0 1 0 64 0zm288 32a32 32 0 1 0 0-64a32 32 0 1 0 0 64z"
     id="path1" />
  <path
     style="font-size:192px;font-family:codicon;-inkscape-font-specification:codicon;letter-spacing:1.1px;word-spacing:0px;fill:#ffffff;stroke-width:10"
     d="m 293.78125,354.03125 h -75.5625 v -14.25 h 29.0625 v -93.5625 h -29.0625 v -12.75 q 5.90625,0 12.65625,-0.9375 6.75,-1.03125 10.21875,-2.90625 4.3125,-2.34375 6.75,-5.90625 2.53125,-3.65625 2.90625,-9.75 h 14.53125 v 125.8125 h 28.5 z"
     id="text1"
     aria-label="1" />
  <g
     id="path2"
     style="opacity:1">
    <path
       style="baseline-shift:baseline;display:inline;overflow:visible;vector-effect:none;fill:#577f8d;enable-background:accumulate;stop-color:#000000;stop-opacity:1"
       d="M 23.721094,478.44856 C 11.685648,475.1116 2.4085014,464.09681 0.74089768,451.16408 -0.20189143,443.85249 -0.15379743,260.77545 0.79347065,251.03752 1.966353,238.98027 4.5454276,231.43124 10.827818,221.66669 c 6.301201,-9.7938 14.724717,-17.36743 24.837817,-22.33181 l 4.359133,-2.13985 18.14002,-52.03404 C 68.1418,116.54226 77.82973,90.02009 79.693529,86.222835 87.255436,70.816374 98.618539,57.915761 112.98359,48.428402 c 12.31887,-8.13596 25.96371,-13.281581 40.15609,-15.143313 4.5125,-0.591941 38.0127,-0.785872 107.21945,-0.620689 l 100.65635,0.240247 7.52941,2.081786 c 29.94427,8.279208 50.99064,25.211154 63.81143,51.336731 1.83638,3.742074 11.50188,30.240796 21.47889,58.886036 17.5616,50.42153 18.21584,52.11287 20.51773,53.04224 4.21647,1.70237 13.15174,7.79725 17.60377,12.00779 4.66046,4.40766 11.72509,14.51968 14.32185,20.4997 2.68297,6.17856 4.13934,12.17154 4.92797,20.27859 0.94727,9.73793 0.99536,192.81497 0.0526,200.12656 -1.43685,11.14306 -8.03371,20.3799 -18.0914,25.33128 l -5.30776,2.613 H 464.0662 440.27245 l -5.15171,-2.4463 c -5.83772,-2.77206 -11.44325,-7.8403 -14.56722,-13.17096 -3.79587,-6.47716 -4.42556,-12.04538 -4.44069,-39.26819 l -0.0138,-24.7678 H 256 95.900929 l -0.01376,24.7678 c -0.01512,27.21129 -0.645334,32.79192 -4.433048,39.25516 -3.219204,5.49316 -8.533495,10.32768 -14.415787,13.11436 l -5.310781,2.51593 -22.19195,0.1723 c -15.953155,0.12385 -23.210357,-0.11008 -25.814509,-0.8321 z m 86.699636,-161.6692 c 23.82609,-11.77549 23.73499,-46.05379 -0.15366,-57.81413 -4.96907,-2.44627 -5.6543,-2.56895 -14.349473,-2.56895 -8.496149,0 -9.461951,0.16199 -13.886637,2.32903 -17.599766,8.61969 -23.764165,31.0145 -12.981662,47.16143 6.678821,10.00161 15.59241,14.4579 28.147657,14.07222 6.528605,-0.20054 7.828455,-0.51309 13.223775,-3.1796 z m 318.62567,0.81797 c 6.3747,-2.93454 10.18925,-6.14726 13.90431,-11.71059 8.49413,-12.72007 6.72186,-29.87528 -4.21713,-40.82088 -2.20502,-2.20634 -6.14906,-5.05959 -8.76454,-6.34055 -4.42469,-2.16704 -5.39049,-2.32903 -13.88664,-2.32903 -8.69517,0 -9.3804,0.12268 -14.34947,2.56895 -19.68645,9.6916 -24.13668,36.27926 -8.66247,51.75347 6.86825,6.86825 13.93484,9.56308 24.21747,9.23528 5.74749,-0.18324 8.03161,-0.64102 11.75847,-2.35665 z M 403.41796,192.30218 c 0,-1.55958 -27.5992,-78.59449 -29.04132,-81.06015 -2.73396,-4.6744 -9.09062,-10.34288 -14.37718,-12.820685 l -4.53197,-2.124131 H 256 156.53251 l -4.53197,2.124131 c -5.29058,2.479695 -11.64807,8.150915 -14.3721,12.820685 -1.05371,1.80636 -7.89347,20.40379 -15.19946,41.32763 -7.30599,20.92384 -13.44852,38.48916 -13.65007,39.03406 -0.29234,0.79033 29.46703,0.99071 147.13629,0.99071 81.12652,0 147.50276,-0.13151 147.50276,-0.29225 z"
       id="path4" />
    <path
       style="baseline-shift:baseline;display:inline;overflow:visible;vector-effect:none;fill:#757575;enable-background:accumulate;stop-color:#000000;stop-opacity:1"
       d="m 260.36133,31.664062 c -34.6047,-0.08259 -60.28359,-0.07451 -77.87891,0.02734 -8.79766,0.05093 -15.5742,0.125591 -20.43945,0.22461 -4.86525,0.09902 -7.75385,0.20913 -9.0332,0.376953 -14.34603,1.881887 -28.1377,7.084537 -40.57813,15.300781 -14.510545,9.58345 -25.997509,22.623546 -33.636718,38.1875 -1.03569,2.110087 -3.857383,9.571061 -7.761719,20.25977 -3.904335,10.6887 -8.822483,24.47731 -13.8125,38.79101 l -18.005859,51.64649 -3.990235,1.95898 c -10.277072,5.04487 -18.844589,12.74994 -25.2382809,22.6875 -6.3419031,9.85705 -9.00483478,17.65859 -10.18749998,29.81641 -0.13298619,1.3671 -0.22815302,5.2185 -0.31835937,11.17578 -0.0902064,5.95727 -0.16505787,13.93845 -0.2265625,23.26367 -0.12300926,18.65044 -0.18902038,42.67704 -0.1953125,66.62891 -0.006292,23.95186 0.0468652,47.82852 0.16015625,66.17578 0.0566455,9.17363 0.12769841,16.9651 0.21484375,22.69531 0.0435727,2.8651 0.091132,5.21368 0.14257812,6.9668 0.0514461,1.75311 0.0979465,2.85487 0.17382813,3.44336 1.7185518,13.32784 11.249198,24.6681 23.703125,28.12109 1.505753,0.41748 3.97707,0.63545 8.136719,0.76953 4.159649,0.13408 9.970483,0.16158 17.953125,0.0996 l 22.414062,-0.17383 5.509766,-2.61133 c 6.076101,-2.87849 11.517081,-7.82518 14.849609,-13.51172 1.945105,-3.31906 3.118736,-6.54653 3.761719,-12.24023 0.642983,-5.69369 0.801029,-13.90816 0.808594,-27.52148 l 0.01367,-23.76758 H 256 415.09961 l 0.0137,23.76758 c 0.008,13.61907 0.16469,21.83146 0.80859,27.52539 0.64391,5.69393 1.82059,8.92243 3.76954,12.24804 3.24801,5.54232 8.95971,10.70011 15,13.56836 l 5.35546,2.54297 h 24.01954 24.02734 l 5.51562,-2.71484 c 10.34438,-5.09252 17.1631,-14.64299 18.64063,-26.10156 0.0759,-0.58848 0.12238,-1.69025 0.17383,-3.44336 0.0514,-1.75312 0.099,-4.1017 0.14258,-6.9668 0.0871,-5.73021 0.1582,-13.52168 0.21484,-22.69531 0.11329,-18.34726 0.16645,-42.22392 0.16016,-66.17578 -0.006,-23.95187 -0.0723,-47.97847 -0.19532,-66.62891 -0.0615,-9.32522 -0.13635,-17.3064 -0.22656,-23.26367 -0.0902,-5.95728 -0.18537,-9.80868 -0.31836,-11.17578 -0.79552,-8.17787 -2.28145,-14.30609 -5.00586,-20.58008 -2.69664,-6.21004 -9.70212,-16.24247 -14.55078,-20.82813 -4.58731,-4.33848 -13.38794,-10.38001 -17.91797,-12.20898 -0.49308,-0.19908 -0.63985,-0.22211 -1.22851,-1.1836 -0.58866,-0.96148 -1.43223,-2.80928 -2.74805,-6.21093 -2.63165,-6.80331 -7.19003,-19.83843 -15.9707,-45.04883 -4.99,-14.32689 -9.9016,-28.11768 -13.79688,-38.79688 C 437.08715,95.404786 434.27768,87.969001 433.25391,85.882812 420.31772,59.522081 398.97635,42.363896 368.81055,34.023437 l -7.65821,-2.11914 z m -0.004,2 100.52149,0.240235 7.40039,2.046875 c 29.72274,8.217957 50.47429,24.922077 63.17968,50.8125 0.81261,1.655885 3.75371,9.338869 7.64454,20.005858 3.89082,10.66699 8.80009,24.45119 13.7871,38.76953 8.78093,25.21113 13.3328,38.23125 15.99415,45.11133 1.33067,3.44004 2.17798,5.34051 2.9082,6.5332 0.73021,1.1927 1.52768,1.73049 2.18555,1.9961 3.90291,1.57577 12.97427,7.72404 17.29101,11.80664 4.47226,4.22967 11.59492,14.42187 14.0918,20.17187 2.64153,6.08313 4.06787,11.94033 4.84961,19.97657 0.10383,1.06738 0.21854,5.06645 0.30859,11.01367 0.0901,5.94721 0.16508,13.9242 0.22656,23.24609 0.12297,18.64379 0.18902,42.66861 0.19532,66.61719 0.006,23.94858 -0.0469,47.82173 -0.16016,66.16211 -0.0566,9.17019 -0.12787,16.95644 -0.21484,22.67578 -0.0435,2.85967 -0.0916,5.20274 -0.14258,6.93945 -0.051,1.73671 -0.11429,2.92258 -0.15625,3.24805 -1.39617,10.82754 -7.77002,19.7503 -17.54102,24.56055 l -5.09961,2.50976 h -23.56054 -23.56836 l -4.94922,-2.34961 c -5.63515,-2.67587 -11.13288,-7.65248 -14.13281,-12.77148 -1.84693,-3.15155 -2.88413,-5.94772 -3.50782,-11.46289 -0.62369,-5.51518 -0.78736,-13.69705 -0.79492,-27.30078 l -0.0156,-25.76758 H 256 94.902344 l -0.01563,25.76758 c -0.0076,13.59796 -0.17209,21.78162 -0.794922,27.29687 -0.622832,5.51525 -1.657391,8.30895 -3.5,11.45313 -3.105879,5.29978 -8.293939,10.02193 -13.982422,12.71679 l -5.111328,2.41992 -21.970703,0.17188 c -7.970513,0.0619 -13.764768,0.0328 -17.873047,-0.0996 -4.108279,-0.13243 -6.567617,-0.39273 -7.666016,-0.69727 -11.616965,-3.22093 -20.6392034,-13.90965 -22.2558591,-26.44726 -0.041967,-0.32547 -0.1052853,-1.51134 -0.15625,-3.24805 -0.050965,-1.73671 -0.099088,-4.07978 -0.1425782,-6.93945 C 1.3466138,435.13027 1.2753743,427.34402 1.21875,418.17383 1.1055014,399.83345 1.0523025,375.9603 1.0585937,352.01172 c 0.00629,-23.94858 0.072347,-47.9734 0.1953125,-66.61719 0.061483,-9.32189 0.1365085,-17.29888 0.2265625,-23.24609 0.090054,-5.94722 0.204763,-9.94629 0.3085938,-11.01367 1.1630995,-11.95669 3.6560285,-19.25569 9.8789065,-28.92774 6.20871,-9.65004 14.488372,-17.09072 24.4375,-21.97461 l 4.728515,-2.32031 18.275391,-52.42188 C 64.096371,131.1852 69.010324,117.40294 72.910156,106.72656 76.809989,96.050186 79.763688,88.35123 80.591797,86.664062 88.076402,71.415094 99.3156,58.65494 113.53516,49.263672 c 12.19731,-8.055676 25.69564,-13.144751 39.73437,-14.986328 0.9769,-0.128148 3.96657,-0.264616 8.81445,-0.363282 4.84789,-0.09867 11.61786,-0.171758 20.41016,-0.222656 17.5846,-0.101796 43.26123,-0.109932 77.86328,-0.02734 z m -104.04687,61.632813 -4.73438,2.21875 c -5.54236,2.597705 -11.92286,8.272335 -14.81055,13.222655 -0.40247,0.68997 -0.95401,2.08385 -1.86132,4.41797 -0.90732,2.33412 -2.08998,5.48743 -3.46875,9.23633 -2.75754,7.49779 -6.29656,17.38109 -9.95117,27.84765 -3.65296,10.4618 -7.01429,20.0835 -9.48829,27.15821 -1.237,3.53735 -2.25246,6.43831 -2.9707,8.48828 -0.71824,2.04997 -1.1663,3.3224 -1.18359,3.36914 -0.12457,0.33675 0.0159,0.83703 0.18554,1.03516 0.16962,0.19812 0.29845,0.24797 0.39649,0.29296 0.19607,0.09 0.32129,0.11275 0.47461,0.14258 0.30664,0.0597 0.68722,0.10059 1.21289,0.14258 1.05133,0.084 2.65732,0.15747 4.95898,0.22266 4.60332,0.13037 11.97619,0.22827 23.03516,0.30273 22.11793,0.14893 58.97535,0.19922 117.81055,0.19922 40.5638,0 77.4399,-0.033 104.17578,-0.0859 13.36794,-0.0265 24.19934,-0.0568 31.6914,-0.0918 3.74604,-0.0175 6.65808,-0.0357 8.63477,-0.0547 0.98834,-0.01 1.74147,-0.0194 2.2539,-0.0293 0.25622,-0.005 0.45084,-0.0102 0.5918,-0.0156 0.0705,-0.003 0.12578,-0.005 0.1836,-0.01 0.0289,-0.002 0.0534,-0.003 0.11132,-0.0117 0.029,-0.004 0.0603,-0.007 0.15235,-0.0351 0.0921,-0.0285 0.70703,-0.95641 0.70703,-0.95704 0,-0.41741 -0.0575,-0.41522 -0.11524,-0.62695 -0.0578,-0.21173 -0.137,-0.47892 -0.24023,-0.81055 -0.20647,-0.66326 -0.50479,-1.57701 -0.88477,-2.71093 -0.75994,-2.26786 -1.84466,-5.41613 -3.15039,-9.15821 -2.61145,-7.48414 -6.1077,-17.33779 -9.64843,-27.2207 -3.54074,-9.88291 -7.12625,-19.79537 -9.91797,-27.39258 -1.39586,-3.7986 -2.59311,-7.01715 -3.48828,-9.36914 -0.44759,-1.17599 -0.81809,-2.13554 -1.10352,-2.8457 -0.28543,-0.71016 -0.4278,-1.0878 -0.62891,-1.43164 -2.89712,-4.95338 -9.27809,-10.6249 -14.8164,-13.220705 l -4.73438,-2.21875 H 256 Z m 0.44531,2 H 256 355.24414 l 4.33008,2.029297 c 5.0348,2.359808 11.36866,8.024498 13.93945,12.419918 -0.0208,-0.0356 0.22075,0.47804 0.49805,1.16797 0.27729,0.68993 0.6467,1.6411 1.0918,2.81055 0.89019,2.33889 2.0861,5.55509 3.48046,9.34961 2.78873,7.58904 6.37279,17.49602 9.91211,27.375 3.53933,9.87897 7.03412,19.72949 9.64258,27.20508 1.30423,3.73779 2.38756,6.88358 3.14258,9.13672 0.36039,1.07549 0.63412,1.91504 0.83203,2.54687 -0.47239,0.007 -0.9588,0.0162 -1.71484,0.0234 -1.97016,0.0189 -4.88066,0.0372 -8.625,0.0547 -7.48868,0.0349 -18.31861,0.0653 -31.68555,0.0918 -26.73387,0.053 -63.60915,0.0859 -104.17187,0.0859 -58.83407,0 -95.69089,-0.0504 -117.79688,-0.19922 -11.05299,-0.0744 -18.42068,-0.17326 -22.99219,-0.30273 -2.28575,-0.0647 -3.87564,-0.13659 -4.85547,-0.21485 -0.0841,-0.007 -0.0946,-0.0126 -0.16992,-0.0195 0.19317,-0.54766 0.32487,-0.91875 0.8125,-2.31055 0.71848,-2.05065 1.73168,-4.95071 2.96875,-8.48828 2.47415,-7.07514 5.8372,-16.69811 9.49024,-27.16015 3.65137,-10.45728 7.18718,-20.33294 9.93945,-27.81641 1.37613,-3.74173 2.55527,-6.88636 3.45508,-9.20117 0.89981,-2.31481 1.60023,-3.92155 1.72461,-4.13477 2.56037,-4.38921 8.89479,-10.05823 13.93359,-12.419918 z M 95.917969,255.39648 c -4.25443,0 -6.657457,0.0333 -8.636719,0.36524 -1.979262,0.33196 -3.460138,0.97457 -5.689453,2.0664 -18.131381,8.88006 -24.492396,31.96485 -13.375,48.61329 6.830832,10.22924 16.205665,14.91096 29.011719,14.51757 6.556404,-0.20139 8.210074,-0.60217 13.634764,-3.2832 24.51805,-12.11747 24.42427,-47.50743 -0.1543,-59.60742 -2.49493,-1.22825 -4.03196,-1.92904 -6.04296,-2.28906 -2.01101,-0.36003 -4.39576,-0.38282 -8.748051,-0.38282 z m 320.164061,0 c -4.35229,0 -6.73704,0.0228 -8.74805,0.38282 -2.011,0.36002 -3.54803,1.06081 -6.04296,2.28906 -20.28308,9.98532 -24.87472,37.41044 -8.92774,53.35742 7.01828,7.01828 14.48537,9.86117 24.95703,9.52734 5.79208,-0.18466 8.33807,-0.69499 12.14453,-2.44726 6.48889,-2.98711 10.52648,-6.38608 14.31836,-12.06445 8.76041,-13.11882 6.92833,-30.8051 -4.34179,-42.08204 -2.32177,-2.32315 -6.24757,-5.16695 -9.03321,-6.53125 -2.22931,-1.09183 -3.71019,-1.73444 -5.68945,-2.0664 -1.97926,-0.33196 -4.38229,-0.36524 -8.63672,-0.36524 z m -320.164061,2 c 4.342881,0 6.646861,0.0387 8.394531,0.35157 1.74767,0.31288 3.03954,0.89722 5.51367,2.11523 23.19873,11.4207 23.28648,44.58603 0.15235,56.01953 -5.36596,2.652 -6.3117,2.87649 -12.812504,3.07617 -12.30444,0.37798 -20.758347,-3.85298 -27.285157,-13.62695 -10.44761,-15.64542 -4.478307,-37.34966 12.589844,-45.70898 2.195371,-1.07521 3.40873,-1.59788 5.142578,-1.88868 1.733848,-0.29079 4.062969,-0.33789 8.304688,-0.33789 z m 320.164061,0 c 4.24172,0 6.57084,0.0471 8.30469,0.33789 1.73385,0.2908 2.9472,0.81347 5.14258,1.88868 2.44532,1.19762 6.40782,4.06086 8.49609,6.15039 10.60786,10.61426 12.32161,27.23727 4.09375,39.55859 -3.63824,5.44829 -7.22972,8.47545 -13.49023,11.35742 -3.64726,1.67899 -5.67014,2.08381 -11.37305,2.26563 -10.0936,0.32177 -16.76029,-2.22514 -23.47852,-8.94336 -15.00144,-15.00144 -10.69333,-40.75056 8.39649,-50.14844 2.47413,-1.21801 3.766,-1.80235 5.51367,-2.11523 1.74767,-0.31288 4.05165,-0.35157 8.39453,-0.35157 z"
       id="path7" />
  </g>
  <path
     style="fill:#ffffff;stroke-width:11.8885;stroke-dashoffset:6"
     d="m 86.850864,317.39979 c -2.362054,-0.66024 -5.431609,-1.90311 -6.821232,-2.76195 -4.087127,-2.52598 -9.836539,-9.20447 -12.122222,-14.08112 -1.860986,-3.97053 -2.124131,-5.51589 -2.124131,-12.47433 0,-7.33079 0.194974,-8.33841 2.532103,-13.08579 2.967164,-6.02716 8.183774,-11.53376 13.957685,-14.73359 3.896847,-2.15958 4.625654,-2.28128 13.627858,-2.27573 8.896845,0.005 9.786145,0.15044 13.775405,2.24541 19.00936,9.98277 22.8131,35.22669 7.49139,49.71733 -5.96817,5.64444 -11.7415,8.11172 -19.681656,8.41111 -3.956451,0.14919 -7.955381,-0.21229 -10.6352,-0.96134 z"
     id="path3" />
  <path
     style="fill:#ffffff;stroke-width:11.8885;stroke-dashoffset:6"
     d="m 406.68649,317.36123 c -5.24182,-1.67127 -8.89457,-4.10764 -13.39894,-8.93702 -5.97431,-6.40539 -7.25491,-9.97938 -7.28271,-20.32515 -0.0215,-7.99319 0.16326,-9.09845 2.22133,-13.28964 2.82593,-5.75492 8.52215,-11.64985 14.07377,-14.56472 4.01676,-2.109 4.89047,-2.25193 13.79911,-2.25742 9.02921,-0.006 9.72199,0.11112 13.68041,2.30433 5.47066,3.03109 11.63635,9.63733 14.30056,15.32238 1.87412,3.99911 2.13668,5.53329 2.13668,12.48507 0,6.94036 -0.26407,8.48912 -2.12413,12.45766 -2.9494,6.29273 -8.53527,11.99894 -14.73237,15.04976 -4.36451,2.14864 -6.15965,2.56209 -11.97177,2.75729 -4.57563,0.15366 -8.11573,-0.17796 -10.70194,-1.00254 z"
     id="path5" />
  <path
     style="fill:#ffffff;stroke-width:11.8885;stroke-dashoffset:6"
     d="m 112.0779,190.48748 c -1.04246,-0.27967 0.47759,-5.28433 8.81867,-29.03499 13.59209,-38.70251 16.43391,-46.34155 18.71573,-50.30946 2.17468,-3.7816 8.15237,-8.83905 13.8748,-11.738823 l 3.78528,-1.918143 h 98.73283 98.73285 l 3.33685,1.674361 c 5.18514,2.601795 11.07027,7.295815 13.40482,10.691775 1.16794,1.69893 3.77867,7.54718 5.80163,12.99609 4.7067,12.67768 24.15516,67.23662 24.15516,67.76271 0,0.48094 -287.56311,0.35819 -289.35862,-0.12352 z"
     id="path6" />
  <path
     style="fill:#ffde05;stroke-width:11.8885;stroke-dashoffset:6"
     d="M 23.380804,476.83363 C 15.930421,474.78882 8.1896473,467.80425 4.5380146,459.83161 2.572543,455.54039 2.4503183,454.46573 1.9078436,436.70587 1.1232965,411.0209 1.1673933,296.40196 1.972792,267.88853 2.6983516,242.20163 3.150509,239.30805 7.9806546,229.44123 13.848007,217.45564 23.959175,206.99294 35.547113,200.9164 c 3.325136,-1.74365 6.049546,-3.42258 6.054247,-3.73096 0.0047,-0.30836 5.208157,-15.46626 11.563237,-33.68421 C 78.296018,91.457652 81.447229,83.625579 89.797861,72.452246 103.13904,54.601445 120.73122,42.712562 142.8106,36.62596 l 7.77763,-2.14405 105.10319,-0.220227 105.10319,-0.220227 9.2002,2.788708 c 23.15715,7.019247 40.95409,19.185573 52.78706,36.086242 7.89583,11.277387 10.37883,17.403047 31.96569,78.860674 14.58737,41.53015 15.84475,44.75154 18.19194,46.6072 0.99534,0.78689 4.49344,3.13466 7.77355,5.21727 8.11421,5.15185 11.36201,8.1358 16.74563,15.38518 6.01491,8.09945 9.19453,14.92329 11.09735,23.81618 1.46528,6.84801 1.57462,11.69844 1.95901,86.90606 0.22391,43.80928 0.10928,90.01466 -0.25473,102.6786 l -0.66184,23.02536 -2.55704,5.19408 c -3.06473,6.22535 -8.4119,11.48191 -15.12912,14.87275 l -4.83307,2.43973 h -23.108 -23.10801 l -5.01902,-2.47086 c -5.92246,-2.91562 -13.12052,-10.05583 -15.45302,-15.32882 -2.21743,-5.01286 -3.04513,-16.05631 -3.07659,-41.04862 l -0.0267,-21.20124 H 255.99999 94.712071 l -0.02669,21.20124 c -0.03409,27.08121 -0.825089,36.33019 -3.590444,41.98237 -2.735443,5.59104 -8.65356,11.30068 -14.901469,14.37651 l -5.056718,2.48942 -22.094689,-0.0535 c -14.922508,-0.0361 -23.252436,-0.37125 -25.661253,-1.03237 z m 86.590326,-158.3759 c 2.50766,-1.17516 6.47544,-3.94881 8.8173,-6.16364 16.84554,-15.93181 13.12801,-43.09791 -7.4324,-54.31268 -4.25534,-2.32109 -4.62332,-2.3777 -15.455105,-2.3777 -10.786231,0 -11.212911,0.0648 -15.284919,2.32073 -12.587273,6.97356 -20.093822,21.91243 -17.736179,35.29698 1.232447,6.99672 4.155166,12.82635 8.997554,17.94646 7.153501,7.56377 13.190679,9.86382 25.212398,9.60541 7.157271,-0.15384 8.960091,-0.47792 12.881351,-2.31556 z m 320.88368,-0.42619 c 21.03712,-10.36778 25.03734,-38.44627 7.75657,-54.44522 -8.03392,-7.43798 -9.56985,-7.98261 -22.51233,-7.98261 -10.82666,0 -11.20177,0.0576 -15.4551,2.37416 -20.23397,11.02028 -24.18451,38.47468 -7.76994,53.99738 7.62487,7.21059 12.73091,9.04898 24.43621,8.79804 7.61533,-0.16325 8.79859,-0.40277 13.54459,-2.74175 z M 381.88962,193.65569 c 17.98397,-0.41472 22.71718,-0.74113 22.71718,-1.56657 0,-1.13733 -10.34656,-30.62427 -21.50897,-61.29901 -3.88313,-10.67101 -8.03279,-20.80752 -9.22146,-22.52559 -2.57207,-3.71759 -8.53464,-8.580831 -13.77835,-11.238022 l -3.78527,-1.918143 H 255.99999 155.68723 l -3.78527,1.918143 c -5.25753,2.664191 -11.20823,7.523262 -13.79869,11.267372 -2.43367,3.5175 -6.94385,15.45049 -21.17525,56.02526 -5.32448,15.18048 -9.44045,27.84178 -9.1466,28.13623 0.29386,0.29443 12.18554,0.72328 26.42596,0.95298 40.29953,0.65003 222.33688,0.83183 247.68224,0.24735 z"
     id="path8" />
</svg>
