<?xml version="1.0" encoding="UTF-8" standalone="no"?>
<svg
   width="512"
   height="512"
   viewBox="0 0 512 512"
   version="1.1"
   id="svg1"
   sodipodi:docname="car_1_blue.svg"
   inkscape:version="1.4.2 (f4327f4, 2025-05-13)"
   xmlns:inkscape="http://www.inkscape.org/namespaces/inkscape"
   xmlns:sodipodi="http://sodipodi.sourceforge.net/DTD/sodipodi-0.dtd"
   xmlns="http://www.w3.org/2000/svg"
   xmlns:svg="http://www.w3.org/2000/svg">
  <defs
     id="defs1" />
  <sodipodi:namedview
     id="namedview1"
     pagecolor="#ffffff"
     bordercolor="#000000"
     borderopacity="0.25"
     inkscape:showpageshadow="2"
     inkscape:pageopacity="0.0"
     inkscape:pagecheckerboard="0"
     inkscape:deskcolor="#d1d1d1"
     inkscape:zoom="1.2617188"
     inkscape:cx="255.60372"
     inkscape:cy="218.74923"
     inkscape:window-width="1440"
     inkscape:window-height="890"
     inkscape:window-x="-6"
     inkscape:window-y="-6"
     inkscape:window-maximized="1"
     inkscape:current-layer="svg1" />
  <path
     fill="#000000"
     d="M135.2 117.4L109.1 192h293.8l-26.1-74.6c-4.5-12.8-16.6-21.4-30.2-21.4H165.4c-13.6 0-25.7 8.6-30.2 21.4zm-95.6 79.4L74.8 96.3C88.3 57.8 124.6 32 165.4 32h181.2c40.8 0 77.1 25.8 90.6 64.3l35.2 100.5c23.2 9.6 39.6 32.5 39.6 59.2v192c0 17.7-14.3 32-32 32h-32c-17.7 0-32-14.3-32-32v-48H96v48c0 17.7-14.3 32-32 32H32c-17.7 0-32-14.3-32-32V256c0-26.7 16.4-49.6 39.6-59.2zM128 288a32 32 0 1 0-64 0a32 32 0 1 0 64 0zm288 32a32 32 0 1 0 0-64a32 32 0 1 0 0 64z"
     id="path1" />
  <text
     xml:space="preserve"
     style="font-size:192px;font-family:codicon;-inkscape-font-specification:codicon;text-align:start;letter-spacing:1.1px;word-spacing:0px;writing-mode:lr-tb;direction:ltr;text-anchor:start;fill:#c3c3c3;stroke-width:10;stroke-dasharray:none"
     x="192.15625"
     y="354.03125"
     id="text1"><tspan
       sodipodi:role="line"
       id="tspan1"
       x="192.15625"
       y="354.03125"
       style="fill:#ffffff;fill-opacity:1;stroke:none;stroke-width:10;stroke-dasharray:none;stroke-opacity:1">1</tspan></text>
  <path
     style="fill:#577f8d;fill-opacity:1;stroke:#757575;stroke-width:2;stroke-dasharray:none;stroke-opacity:1"
     d="M 23.721094,478.44856 C 11.685648,475.1116 2.4085014,464.09681 0.74089768,451.16408 -0.20189143,443.85249 -0.15379743,260.77545 0.79347065,251.03752 1.966353,238.98027 4.5454276,231.43124 10.827818,221.66669 c 6.301201,-9.7938 14.724717,-17.36743 24.837817,-22.33181 l 4.359133,-2.13985 18.14002,-52.03404 C 68.1418,116.54226 77.82973,90.02009 79.693529,86.222835 87.255436,70.816374 98.618539,57.915761 112.98359,48.428402 c 12.31887,-8.13596 25.96371,-13.281581 40.15609,-15.143313 4.5125,-0.591941 38.0127,-0.785872 107.21945,-0.620689 l 100.65635,0.240247 7.52941,2.081786 c 29.94427,8.279208 50.99064,25.211154 63.81143,51.336731 1.83638,3.742074 11.50188,30.240796 21.47889,58.886036 17.5616,50.42153 18.21584,52.11287 20.51773,53.04224 4.21647,1.70237 13.15174,7.79725 17.60377,12.00779 4.66046,4.40766 11.72509,14.51968 14.32185,20.4997 2.68297,6.17856 4.13934,12.17154 4.92797,20.27859 0.94727,9.73793 0.99536,192.81497 0.0526,200.12656 -1.43685,11.14306 -8.03371,20.3799 -18.0914,25.33128 l -5.30776,2.613 H 464.0662 440.27245 l -5.15171,-2.4463 c -5.83772,-2.77206 -11.44325,-7.8403 -14.56722,-13.17096 -3.79587,-6.47716 -4.42556,-12.04538 -4.44069,-39.26819 l -0.0138,-24.7678 H 256 95.900929 l -0.01376,24.7678 c -0.01512,27.21129 -0.645334,32.79192 -4.433048,39.25516 -3.219204,5.49316 -8.533495,10.32768 -14.415787,13.11436 l -5.310781,2.51593 -22.19195,0.1723 c -15.953155,0.12385 -23.210357,-0.11008 -25.814509,-0.8321 z M 294.04334,346.74923 v -7.52942 h -14.26625 -14.26625 v -62.613 -62.613 h -7.45036 -7.45037 l -0.9339,3.89295 c -1.22466,5.10496 -5.20315,9.68159 -10.33564,11.88953 -2.50242,1.07651 -7.35597,2.09274 -12.71559,2.66236 l -8.66832,0.92128 v 6.56462 6.56461 h 14.66254 14.66253 v 46.36533 46.36532 H 232.6192 217.95666 v 7.52942 7.52941 H 256 294.04334 Z M 110.42073,316.77936 c 23.82609,-11.77549 23.73499,-46.05379 -0.15366,-57.81413 -4.96907,-2.44627 -5.6543,-2.56895 -14.349473,-2.56895 -8.496149,0 -9.461951,0.16199 -13.886637,2.32903 -17.599766,8.61969 -23.764165,31.0145 -12.981662,47.16143 6.678821,10.00161 15.59241,14.4579 28.147657,14.07222 6.528605,-0.20054 7.828455,-0.51309 13.223775,-3.1796 z m 318.62567,0.81797 c 6.3747,-2.93454 10.18925,-6.14726 13.90431,-11.71059 8.49413,-12.72007 6.72186,-29.87528 -4.21713,-40.82088 -2.20502,-2.20634 -6.14906,-5.05959 -8.76454,-6.34055 -4.42469,-2.16704 -5.39049,-2.32903 -13.88664,-2.32903 -8.69517,0 -9.3804,0.12268 -14.34947,2.56895 -19.68645,9.6916 -24.13668,36.27926 -8.66247,51.75347 6.86825,6.86825 13.93484,9.56308 24.21747,9.23528 5.74749,-0.18324 8.03161,-0.64102 11.75847,-2.35665 z M 403.41796,192.30218 c 0,-1.55958 -27.5992,-78.59449 -29.04132,-81.06015 -2.73396,-4.6744 -9.09062,-10.34288 -14.37718,-12.820685 l -4.53197,-2.124131 H 256 156.53251 l -4.53197,2.124131 c -5.29058,2.479695 -11.64807,8.150915 -14.3721,12.820685 -1.05371,1.80636 -7.89347,20.40379 -15.19946,41.32763 -7.30599,20.92384 -13.44852,38.48916 -13.65007,39.03406 -0.29234,0.79033 29.46703,0.99071 147.13629,0.99071 81.12652,0 147.50276,-0.13151 147.50276,-0.29225 z"
     id="path2" />
</svg>
