<?xml version="1.0" encoding="UTF-8" standalone="no"?>
<svg
   width="300"
   height="300"
   viewBox="0 0 300 300"
   version="1.1"
   id="svg1"
   sodipodi:docname="car_3_green.svg"
   inkscape:version="1.4.2 (f4327f4, 2025-05-13)"
   xmlns:inkscape="http://www.inkscape.org/namespaces/inkscape"
   xmlns:sodipodi="http://sodipodi.sourceforge.net/DTD/sodipodi-0.dtd"
   xmlns="http://www.w3.org/2000/svg"
   xmlns:svg="http://www.w3.org/2000/svg">
  <defs
     id="defs1" />
  <sodipodi:namedview
     id="namedview1"
     pagecolor="#ffffff"
     bordercolor="#000000"
     borderopacity="0.25"
     inkscape:showpageshadow="2"
     inkscape:pageopacity="0.0"
     inkscape:pagecheckerboard="0"
     inkscape:deskcolor="#d1d1d1"
     inkscape:zoom="1.2617188"
     inkscape:cx="199.33126"
     inkscape:cy="236.97832"
     inkscape:window-width="1440"
     inkscape:window-height="890"
     inkscape:window-x="-6"
     inkscape:window-y="-6"
     inkscape:window-maximized="1"
     inkscape:current-layer="svg1" />
  <g
     id="g1"
     transform="matrix(0.77969377,0,0,0.77969377,14.101409,-105.18699)">
    <path
       fill="#000000"
       d="M 91.940491,232.82628 74.14649,283.68576 H 274.4483 l -17.79399,-50.85948 c -3.06794,-8.72656 -11.31727,-14.58973 -20.58924,-14.58973 H 112.52972 c -9.27197,0 -17.521298,5.86317 -20.589229,14.58973 z m -65.176493,54.13193 23.998039,-68.51713 c 9.203793,-26.24785 33.951771,-43.83733 61.767683,-43.83733 h 123.53535 c 27.81592,0 52.56389,17.58948 61.76769,43.83733 l 23.99804,68.51713 c 15.81689,6.54492 26.99779,22.15728 26.99779,40.36034 v 130.8984 c 0,12.0672 -9.74921,21.81639 -21.8164,21.81639 h -21.8164 c -12.06719,0 -21.8164,-9.74919 -21.8164,-21.81639 v -32.7246 H 65.215401 v 32.7246 c 0,12.0672 -9.749203,21.81639 -21.816398,21.81639 H 21.582602 c -12.0671948,0 -21.81639823,-9.74919 -21.81639823,-21.81639 v -130.8984 c 0,-18.20306 11.18090423,-33.81542 26.99779423,-40.36034 z M 87.0318,349.13495 a 21.816399,21.816399 0 1 0 -43.632797,0 21.816399,21.816399 0 1 0 43.632797,0 z m 196.34759,21.8164 a 21.8164,21.8164 0 1 0 0,-43.6328 21.8164,21.8164 0 1 0 0,43.6328 z"
       id="path1"
       style="stroke-width:0.681763" />
    <text
       xml:space="preserve"
       style="font-size:130.898px;font-family:codicon;-inkscape-font-specification:codicon;text-align:start;letter-spacing:0.749939px;word-spacing:0px;writing-mode:lr-tb;direction:ltr;text-anchor:start;fill:#c3c3c3;stroke-width:6.81763;stroke-dasharray:none"
       x="133.39165"
       y="394.15259"
       id="text1"><tspan
         sodipodi:role="line"
         id="tspan1"
         x="133.39165"
         y="394.15259"
         style="fill:#ffffff;fill-opacity:1;stroke:none;stroke-width:6.81763;stroke-dasharray:none;stroke-opacity:1">4</tspan></text>
    <path
       style="fill:#0e584d;fill-opacity:1;stroke:#757575;stroke-width:1.08069;stroke-dasharray:none;stroke-opacity:1"
       d="M 15.938355,478.97563 C 7.7330401,476.70062 1.4082296,469.19115 0.27132,460.3741 -0.37143824,455.38933 -0.33864955,330.57427 0.30716228,323.93532 1.1067895,315.71513 2.8651057,310.56849 7.1482038,303.91139 11.444126,297.23435 17.186963,292.07093 24.081695,288.68639 l 2.971894,-1.45886 12.367184,-35.47486 c 6.801953,-19.51117 13.40682,-37.59299 14.677488,-40.18182 5.155425,-10.50354 12.902362,-19.2987 22.695915,-25.76682 8.398543,-5.54679 17.701082,-9.05488 27.376914,-10.32415 3.07645,-0.40356 25.91563,-0.53578 73.0982,-0.42315 l 68.62372,0.16379 5.13326,1.41927 c 20.41489,5.64446 34.76352,17.18803 43.50424,34.99946 1.25198,2.55121 7.84156,20.61703 14.64352,40.14629 11.97283,34.3755 12.41886,35.52861 13.98821,36.16222 2.87463,1.16061 8.96636,5.31586 12.00159,8.18645 3.17733,3.00498 7.99372,9.89897 9.76409,13.97593 1.82916,4.21231 2.82206,8.2981 3.35971,13.82518 0.64581,6.63895 0.6786,131.45401 0.0358,136.43878 -0.97959,7.59691 -5.47708,13.89425 -12.33404,17.26991 l -3.61864,1.78145 H 316.14908 299.9274 l -3.51224,-1.66779 c -3.97994,-1.88989 -7.80158,-5.34523 -9.93139,-8.97947 -2.58787,-4.41589 -3.01718,-8.2121 -3.0275,-26.77158 l -0.009,-16.88576 H 174.2974 65.147859 l -0.0093,16.88576 c -0.01035,18.55164 -0.439964,22.35629 -3.022287,26.7627 -2.194731,3.74502 -5.817816,7.04101 -9.828142,8.94087 l -3.620691,1.71527 -15.129639,0.11747 c -10.876263,0.0844 -15.82395,-0.0751 -17.599364,-0.5673 z M 196.45152,381.08281 v -13.23844 h 7.02447 7.02447 v -5.40344 -5.40344 h -7.02447 -7.02447 V 327.8589 298.68031 h -6.14025 -6.14025 l -23.03722,26.88212 -23.03723,26.88212 -0.001,7.69991 -0.001,7.69991 h 22.69446 22.69445 v 13.23844 13.23843 h 6.48414 6.48413 z M 75.046914,368.75563 c 16.243734,-8.02808 16.181626,-31.39773 -0.104765,-39.41549 -3.387726,-1.66778 -3.854889,-1.75142 -9.782932,-1.75142 -5.792356,0 -6.450802,0.1104 -9.467388,1.58784 -11.99886,5.87658 -16.201516,21.14453 -8.850411,32.1529 4.553371,6.81872 10.630321,9.85685 19.190017,9.59391 4.450958,-0.13672 5.337148,-0.34981 9.015474,-2.16774 z m 217.227026,0.55767 c 4.34603,-2.00066 6.94665,-4.19098 9.47943,-7.98384 5.79098,-8.67207 4.58271,-20.36784 -2.87507,-27.83015 -1.50331,-1.5042 -4.1922,-3.44943 -5.97534,-4.32275 -3.01658,-1.4774 -3.67504,-1.58784 -9.46739,-1.58784 -5.92804,0 -6.39521,0.0836 -9.78292,1.75142 -13.4215,6.60737 -16.45549,24.73384 -5.90575,35.28357 4.68251,4.68251 9.50024,6.51974 16.51056,6.29627 3.91842,-0.12492 5.47565,-0.43703 8.01648,-1.60668 z m -17.4725,-85.42153 c 0,-1.06327 -18.81611,-53.58278 -19.79929,-55.26377 -1.86392,-3.18683 -6.19765,-7.05139 -9.80182,-8.74067 l -3.08973,-1.44815 h -67.8132 -67.8132 l -3.08973,1.44815 c -3.60692,1.69057 -7.941219,5.55699 -9.798361,8.74067 -0.718379,1.23151 -5.381471,13.91054 -10.362421,28.17562 -4.98095,14.2651 -9.168697,26.24047 -9.306106,26.61197 -0.199306,0.53881 20.089516,0.67542 100.312008,0.67542 55.30901,0 100.56185,-0.0897 100.56185,-0.19924 z"
       id="path2" />
    <path
       style="fill:#0e584d;fill-opacity:1;stroke:#757575;stroke-width:1.08069;stroke-dasharray:none;stroke-opacity:1"
       d="m 148.46307,356.09188 c 0.44553,-0.52007 8.17743,-9.57759 17.182,-20.12782 9.00458,-10.55023 16.70186,-19.53827 17.10507,-19.97344 0.61825,-0.66725 0.7331,2.48624 0.7331,20.12782 v 20.91905 h -17.9151 c -17.01036,0 -17.8742,-0.0477 -17.10507,-0.94561 z"
       id="path3" />
  </g>
  <path
     style="fill:#ffffff;stroke-width:5.94427;stroke-dashoffset:6"
     d="m 60.631577,182.94683 c -4.646555,-1.21077 -8.314298,-4.27666 -10.550658,-8.81935 -3.256789,-6.61547 -1.257737,-15.26732 4.621338,-20.00102 3.208006,-2.58302 5.017333,-3.1342 10.288453,-3.1342 4.224149,0 4.990086,0.10925 6.855952,0.97789 1.155295,0.53784 3.132132,1.96187 4.392972,3.16451 8.355278,7.96958 6.253732,21.47565 -4.140987,26.61299 -2.451145,1.21143 -3.354544,1.44058 -6.178292,1.56719 -1.940234,0.087 -4.126391,-0.0651 -5.288778,-0.36801 z"
     id="path4" />
  <path
     style="fill:#ffffff;stroke-width:4.20324;stroke-dashoffset:6"
     d="m 157.62132,191.38731 v -10.36798 h -17.65359 -17.65359 v -5.55736 -5.55736 l 17.81379,-20.78292 17.81379,-20.78291 h 4.32325 4.32325 v 22.69747 22.69747 h 5.60432 5.60431 v 3.64281 3.6428 h -5.60431 -5.60432 v 10.36798 10.36798 h -4.48345 -4.48345 z m 0,-34.79018 v -17.13658 l -0.60834,0.53381 c -0.58051,0.50939 -23.56999,27.26063 -26.94804,31.35753 l -1.61733,1.96151 1.20655,0.16807 c 0.66361,0.0924 7.2277,0.18702 14.58686,0.21017 l 13.3803,0.0421 z"
     id="path5" />
  <path
     style="fill:#ffffff;stroke-width:4.20324;stroke-dashoffset:6"
     d="m 231.86103,183.24353 c -6.10875,-0.89907 -11.65555,-6.35257 -13.0226,-12.80354 -1.54883,-7.30877 2.20101,-14.95752 8.97979,-18.31653 l 2.47682,-1.22732 h 4.79932 4.79933 l 2.10542,1.04056 c 5.77042,2.85189 9.52798,8.71892 9.5631,14.93174 0.0264,4.66478 -1.57744,8.60878 -4.85018,11.92729 -3.75769,3.81024 -8.84027,5.33245 -14.851,4.4478 z"
     id="path6" />
  <path
     style="fill:#ffffff;stroke-width:4.20324;stroke-dashoffset:6"
     d="m 76.330084,115.46096 -3.811599,-0.15221 4.972041,-14.19869 c 5.160442,-14.736714 9.315887,-26.194614 9.94629,-27.425128 1.194849,-2.332283 4.962296,-5.666729 8.108825,-7.17686 l 1.953604,-0.937603 h 52.356295 52.35629 l 1.45302,0.607215 c 3.71745,1.55351 7.78046,5.112266 9.0095,7.891339 1.09407,2.473895 10.72314,29.142477 13.75195,38.087297 l 1.20977,3.57275 -73.74719,-0.0579 c -40.56096,-0.0319 -75.462416,-0.12645 -77.558796,-0.21016 z"
     id="path7" />
</svg>
