<?xml version="1.0" encoding="UTF-8" standalone="no"?>
<svg
   width="512"
   height="512"
   viewBox="0 0 512 512"
   version="1.1"
   id="svg1"
   sodipodi:docname="car_2_orange.svg"
   inkscape:version="1.4.2 (f4327f4, 2025-05-13)"
   xmlns:inkscape="http://www.inkscape.org/namespaces/inkscape"
   xmlns:sodipodi="http://sodipodi.sourceforge.net/DTD/sodipodi-0.dtd"
   xmlns="http://www.w3.org/2000/svg"
   xmlns:svg="http://www.w3.org/2000/svg">
  <defs
     id="defs1" />
  <sodipodi:namedview
     id="namedview1"
     pagecolor="#ffffff"
     bordercolor="#000000"
     borderopacity="0.25"
     inkscape:showpageshadow="2"
     inkscape:pageopacity="0.0"
     inkscape:pagecheckerboard="0"
     inkscape:deskcolor="#d1d1d1"
     inkscape:zoom="1.2617188"
     inkscape:cx="255.60371"
     inkscape:cy="218.74922"
     inkscape:window-width="1440"
     inkscape:window-height="890"
     inkscape:window-x="-6"
     inkscape:window-y="-6"
     inkscape:window-maximized="1"
     inkscape:current-layer="svg1" />
  <path
     fill="#000000"
     d="M135.2 117.4L109.1 192h293.8l-26.1-74.6c-4.5-12.8-16.6-21.4-30.2-21.4H165.4c-13.6 0-25.7 8.6-30.2 21.4zm-95.6 79.4L74.8 96.3C88.3 57.8 124.6 32 165.4 32h181.2c40.8 0 77.1 25.8 90.6 64.3l35.2 100.5c23.2 9.6 39.6 32.5 39.6 59.2v192c0 17.7-14.3 32-32 32h-32c-17.7 0-32-14.3-32-32v-48H96v48c0 17.7-14.3 32-32 32H32c-17.7 0-32-14.3-32-32V256c0-26.7 16.4-49.6 39.6-59.2zM128 288a32 32 0 1 0-64 0a32 32 0 1 0 64 0zm288 32a32 32 0 1 0 0-64a32 32 0 1 0 0 64z"
     id="path1" />
  <path
     style="font-size:192px;font-family:codicon;-inkscape-font-specification:codicon;letter-spacing:1.1px;word-spacing:0px;fill:#ffffff;stroke-width:10"
     d="m 303.25,354.03125 h -94.5 V 334.4375 q 9.84375,-8.4375 19.6875,-16.875 9.9375,-8.4375 18.46875,-16.78125 18,-17.4375 24.65625,-27.65625 6.65625,-10.3125 6.65625,-22.21875 0,-10.875 -7.21875,-16.96875 -7.125,-6.1875 -19.96875,-6.1875 -8.53125,0 -18.46875,3 -9.9375,3 -19.40625,9.1875 h -0.9375 V 220.25 q 6.65625,-3.28125 17.71875,-6 11.15625,-2.71875 21.5625,-2.71875 21.46875,0 33.65625,10.40625 12.1875,10.3125 12.1875,28.03125 0,7.96875 -2.0625,14.90625 -1.96875,6.84375 -5.90625,13.03125 -3.65625,5.8125 -8.625,11.4375 -4.875,5.625 -11.90625,12.46875 -10.03125,9.84375 -20.71875,19.125 Q 237.4375,330.125 228.15625,338 H 303.25 Z"
     id="text1"
     aria-label="2" />
  <path
     style="baseline-shift:baseline;display:inline;overflow:visible;vector-effect:none;fill:#e79e16;enable-background:accumulate;stop-color:#000000"
     d="M 23.721094,478.44856 C 11.685648,475.1116 2.4085014,464.09681 0.74089768,451.16408 -0.20189143,443.85249 -0.15379743,260.77545 0.79347065,251.03752 1.966353,238.98027 4.5454276,231.43124 10.827818,221.66669 c 6.301201,-9.7938 14.724717,-17.36743 24.837817,-22.33181 l 4.359133,-2.13985 18.14002,-52.03404 C 68.1418,116.54226 77.82973,90.02009 79.693529,86.222835 87.255436,70.816374 98.618539,57.915761 112.98359,48.428402 c 12.31887,-8.13596 25.96371,-13.281581 40.15609,-15.143313 4.5125,-0.591941 38.0127,-0.785872 107.21945,-0.620689 l 100.65635,0.240247 7.52941,2.081786 c 29.94427,8.279208 50.99064,25.211154 63.81143,51.336731 1.83638,3.742074 11.50188,30.240796 21.47889,58.886036 17.5616,50.42153 18.21584,52.11287 20.51773,53.04224 4.21647,1.70237 13.15174,7.79725 17.60377,12.00779 4.66046,4.40766 11.72509,14.51968 14.32185,20.4997 2.68297,6.17856 4.13934,12.17154 4.92797,20.27859 0.94727,9.73793 0.99536,192.81497 0.0526,200.12656 -1.43685,11.14306 -8.03371,20.3799 -18.0914,25.33128 l -5.30776,2.613 H 464.0662 440.27245 l -5.15171,-2.4463 c -5.83772,-2.77206 -11.44325,-7.8403 -14.56722,-13.17096 -3.79587,-6.47716 -4.42556,-12.04538 -4.44069,-39.26819 l -0.0138,-24.7678 H 256 95.900929 l -0.01376,24.7678 c -0.01512,27.21129 -0.645334,32.79192 -4.433048,39.25516 -3.219204,5.49316 -8.533495,10.32768 -14.415787,13.11436 l -5.310781,2.51593 -22.19195,0.1723 c -15.953155,0.12385 -23.210357,-0.11008 -25.814509,-0.8321 z M 303.55418,345.96449 v -8.31414 l -36.88095,-0.20598 -36.88095,-0.20598 12.10014,-10.30341 c 14.80656,-12.60796 35.74717,-32.88622 41.86747,-40.54321 8.34919,-10.44553 11.90264,-18.27069 13.45915,-29.63878 1.02042,-7.45272 0.1329,-15.64205 -2.44067,-22.52053 -2.16459,-5.78539 -9.35283,-13.57539 -15.57093,-16.87444 -15.36528,-8.15214 -39.5416,-8.00067 -62.2415,0.38995 l -5.34984,1.97748 v 10.21158 c 0,11.66093 -0.0279,11.62489 6.08975,7.86615 14.11902,-8.67486 35.61071,-12.00188 46.69445,-7.22854 4.77421,2.05607 10.03358,7.15328 11.82743,11.46275 1.49819,3.59919 1.70837,12.55455 0.4266,18.1762 -1.27719,5.60153 -4.86272,12.19623 -10.47292,19.26237 -7.27957,9.16874 -25.16892,26.62658 -42.50896,41.48357 l -15.22663,13.04623 v 10.13643 10.13645 H 256 303.55418 Z M 110.42073,316.77936 c 23.82609,-11.77549 23.73499,-46.05379 -0.15366,-57.81413 -4.96907,-2.44627 -5.6543,-2.56895 -14.349473,-2.56895 -8.496149,0 -9.461951,0.16199 -13.886637,2.32903 -17.599766,8.61969 -23.764165,31.0145 -12.981662,47.16143 6.678821,10.00161 15.59241,14.4579 28.147657,14.07222 6.528605,-0.20054 7.828455,-0.51309 13.223775,-3.1796 z m 318.62567,0.81797 c 6.3747,-2.93454 10.18925,-6.14726 13.90431,-11.71059 8.49413,-12.72007 6.72186,-29.87528 -4.21713,-40.82088 -2.20502,-2.20634 -6.14906,-5.05959 -8.76454,-6.34055 -4.42469,-2.16704 -5.39049,-2.32903 -13.88664,-2.32903 -8.69517,0 -9.3804,0.12268 -14.34947,2.56895 -19.68645,9.6916 -24.13668,36.27926 -8.66247,51.75347 6.86825,6.86825 13.93484,9.56308 24.21747,9.23528 5.74749,-0.18324 8.03161,-0.64102 11.75847,-2.35665 z M 403.41796,192.30218 c 0,-1.55958 -27.5992,-78.59449 -29.04132,-81.06015 -2.73396,-4.6744 -9.09062,-10.34288 -14.37718,-12.820685 l -4.53197,-2.124131 H 256 156.53251 l -4.53197,2.124131 c -5.29058,2.479695 -11.64807,8.150915 -14.3721,12.820685 -1.05371,1.80636 -7.89347,20.40379 -15.19946,41.32763 -7.30599,20.92384 -13.44852,38.48916 -13.65007,39.03406 -0.29234,0.79033 29.46703,0.99071 147.13629,0.99071 81.12652,0 147.50276,-0.13151 147.50276,-0.29225 z"
     id="path7" />
  <path
     style="baseline-shift:baseline;display:inline;overflow:visible;vector-effect:none;fill:#757575;enable-background:accumulate;stop-color:#000000"
     d="m 260.36133,31.871094 c -34.60442,-0.08259 -60.28275,-0.07451 -77.87696,0.02734 -8.7971,0.05093 -15.57209,0.125628 -20.43554,0.22461 -4.86345,0.09898 -7.76374,0.213245 -9.01172,0.376953 -14.31416,1.877706 -28.07502,7.067988 -40.49023,15.267578 -14.48037,9.563518 -25.941284,22.574184 -33.564458,38.105469 -1.014161,2.066224 -3.851991,9.550855 -7.75586,20.238286 -3.903868,10.68742 -8.820843,24.47626 -13.810546,38.78906 l -18.033204,51.72656 -4.066406,1.9961 c -10.243059,5.02817 -18.77979,12.70749 -25.154297,22.61523 -6.329558,9.83786 -8.9775668,17.5857 -10.15820275,29.72266 -0.12996235,1.33601 -0.2262157,5.20392 -0.31640625,11.16015 -0.0901905,5.95623 -0.16506015,13.93685 -0.2265625,23.26172 -0.12300471,18.64975 -0.18902047,42.67543 -0.1953125,66.62696 -0.006292,23.95152 0.0468696,47.82728 0.16015625,66.17382 0.0566433,9.17328 0.12771556,16.96428 0.21484375,22.69336 0.0435641,2.86454 0.0911819,5.21343 0.14257812,6.96485 0.0513962,1.75141 0.0995108,2.86262 0.17187501,3.42382 1.70798357,13.24589 11.18756587,24.51835 23.55468787,27.94727 1.463504,0.40577 3.933569,0.62781 8.08789,0.76172 4.154321,0.13391 9.961976,0.15962 17.94336,0.0977 l 22.367187,-0.17188 5.46875,-2.5918 c 6.035899,-2.85945 11.452697,-7.78326 14.761719,-13.42968 1.934474,-3.30093 3.093481,-6.48302 3.734375,-12.15821 0.640893,-5.67519 0.799077,-13.88631 0.80664,-27.49804 l 0.01367,-23.97461 H 256 415.30664 l 0.0137,23.97461 c 0.008,13.61748 0.16483,21.82851 0.80664,27.5039 0.64181,5.67539 1.80383,8.85846 3.74219,12.16602 3.22228,5.49841 8.91384,10.63803 14.91211,13.48633 l 5.3125,2.52148 h 23.97266 23.97851 l 5.47266,-2.69336 c 10.28491,-5.06324 17.05825,-14.54828 18.52734,-25.94141 0.0724,-0.5612 0.12048,-1.67241 0.17188,-3.42382 0.0514,-1.75141 0.099,-4.10031 0.14257,-6.96485 0.0871,-5.72908 0.15821,-13.52008 0.21485,-22.69336 0.11328,-18.34654 0.16645,-42.2223 0.16015,-66.17382 -0.006,-23.95153 -0.0723,-47.97721 -0.19531,-66.62696 -0.0615,-9.32487 -0.13637,-17.30549 -0.22656,-23.26172 -0.0902,-5.95623 -0.18644,-9.82414 -0.31641,-11.16015 -0.79409,-8.16318 -2.27442,-14.26339 -4.99023,-20.51758 -2.67593,-6.16233 -9.69428,-16.21103 -14.50391,-20.75977 -4.55925,-4.31194 -13.38657,-10.36526 -17.85156,-12.16797 -0.51017,-0.20597 -0.72478,-0.28211 -1.32812,-1.26757 -0.60335,-0.98547 -1.45022,-2.83851 -2.76758,-6.24414 -2.63473,-6.81128 -7.19001,-19.84421 -15.97071,-45.05469 -4.98968,-14.32601 -9.90206,-28.11504 -13.79687,-38.79297 C 436.8923,95.478317 434.07023,88.016169 433.06836,85.974609 420.15611,59.662656 398.87571,42.55041 368.75586,34.222656 l -7.63281,-2.109375 z m -0.004,1.585937 100.54883,0.240235 7.42773,2.052734 c 29.7687,8.230663 50.58122,24.982674 63.31055,50.921875 0.83451,1.700514 3.76301,9.359087 7.6543,20.027345 3.89128,10.66826 8.79978,24.45225 13.78711,38.77148 8.7809,25.21106 13.33392,38.23335 15.99218,45.10547 1.32914,3.43606 2.1751,5.33129 2.89063,6.5 0.71553,1.16872 1.44712,1.65145 2.08789,1.91016 3.96795,1.60203 13.01066,7.74047 17.35547,11.84961 4.5113,4.26659 11.62108,14.44057 14.13867,20.23828 2.65013,6.10293 4.08402,11.98814 4.86719,20.03906 0.10685,1.09847 0.21852,5.08299 0.30859,11.03125 0.0901,5.94826 0.16703,13.92581 0.22852,23.24805 0.12297,18.64447 0.18706,42.67022 0.19336,66.61914 0.006,23.94892 -0.045,47.82101 -0.15821,66.16211 -0.0566,9.17055 -0.1298,16.95922 -0.21679,22.67969 -0.0435,2.86023 -0.0896,5.20299 -0.14063,6.9414 -0.051,1.73841 -0.11467,2.91483 -0.16015,3.26758 -1.40461,10.89299 -7.82383,19.88314 -17.6543,24.72266 l -5.14258,2.53125 h -23.60937 -23.61524 l -4.99023,-2.3711 c -5.67717,-2.69582 -11.197,-7.69256 -14.22266,-12.85547 -1.85751,-3.16959 -2.90937,-6.00925 -3.53516,-11.54297 -0.62578,-5.53371 -0.78931,-13.71889 -0.79687,-27.32421 l -0.0156,-25.56055 H 256 95.109375 l -0.01563,25.56055 c -0.0076,13.59955 -0.171953,21.78655 -0.796875,27.32031 -0.624922,5.53376 -1.674104,8.37284 -3.527344,11.53515 -3.129386,5.3399 -8.341627,10.08492 -14.070312,12.79883 l -5.152344,2.43946 -22.017578,0.17187 c -7.971771,0.0619 -13.767253,0.0349 -17.88086,-0.0977 -4.113606,-0.13259 -6.574196,-0.38882 -7.714843,-0.70507 -11.703771,-3.245 -20.7790264,-14.00348 -22.4062503,-26.62305 -0.045484,-0.35274 -0.1091415,-1.52917 -0.1601562,-3.26758 -0.051015,-1.73841 -0.097126,-4.08117 -0.140625,-6.9414 -0.086997,-5.72047 -0.1601704,-13.50914 -0.2167969,-22.67969 -0.11325298,-18.3411 -0.16449444,-42.21319 -0.1582031,-66.16211 0.006291,-23.94892 0.0703895,-47.97467 0.1933594,-66.61914 0.061485,-9.32224 0.1384458,-17.29979 0.2285156,-23.24805 0.09007,-5.94826 0.2017391,-9.93278 0.3085937,-11.03125 1.1651288,-11.97754 3.676887,-19.32634 9.9121098,-29.01758 6.227895,-9.67986 14.538343,-17.14824 24.521484,-22.04883 l 4.650391,-2.2832 18.248046,-52.3418 c 4.987309,-14.30593 9.902436,-28.08796 13.802735,-38.76562 3.900299,-10.677655 6.837862,-18.352954 7.6875,-20.083984 7.50064,-15.281637 18.765888,-28.071222 33.015628,-37.482422 12.22253,-8.07233 25.75166,-13.173774 39.82226,-15.019532 1.00828,-0.132262 3.9882,-0.264579 8.83789,-0.363281 4.84969,-0.0987 11.62121,-0.173708 20.41406,-0.224609 17.58571,-0.101803 43.26095,-0.10798 77.86328,-0.02539 z m -104.00195,62.046875 -4.69141,2.199219 c -5.49013,2.573225 -11.86696,8.246545 -14.7207,13.138675 -0.37364,0.64052 -0.93917,2.05851 -1.8457,4.39062 -0.90654,2.33212 -2.09026,5.48232 -3.46875,9.23047 -2.75699,7.49631 -6.29299,17.38011 -9.94727,27.8457 -3.65296,10.46183 -7.01622,20.08346 -9.49023,27.15821 -1.23701,3.53737 -2.25244,6.43824 -2.97071,8.48828 -0.71826,2.05004 -1.16139,3.30774 -1.18554,3.37304 -0.0997,0.26947 0.0138,0.6686 0.15039,0.82813 0.13657,0.15953 0.24119,0.20213 0.32422,0.24023 0.16604,0.0762 0.28425,0.0987 0.42968,0.12696 0.29088,0.0566 0.66555,0.0989 1.1875,0.14062 1.04392,0.0834 2.64921,0.15556 4.94922,0.22071 4.60002,0.13028 11.97095,0.22827 23.0293,0.30273 22.11669,0.14892 58.97547,0.19922 117.81055,0.19922 40.56368,0 77.43815,-0.033 104.17382,-0.0859 13.36784,-0.0265 24.20165,-0.0569 31.69336,-0.0918 3.74586,-0.0175 6.65485,-0.0357 8.63086,-0.0547 0.98801,-0.01 1.74282,-0.0194 2.25391,-0.0293 0.25554,-0.005 0.4496,-0.0103 0.58789,-0.0156 0.0691,-0.003 0.12327,-0.006 0.17578,-0.01 0.0263,-0.002 0.0481,-0.002 0.0957,-0.01 0.0238,-0.004 0.0497,-0.007 0.12305,-0.0293 0.0734,-0.0228 0.56055,-0.75719 0.56055,-0.75782 0,-0.34094 -0.0508,-0.36471 -0.10742,-0.57226 -0.0566,-0.20755 -0.13546,-0.47438 -0.23829,-0.80469 -0.20564,-0.66061 -0.50504,-1.57191 -0.88476,-2.70508 -0.75944,-2.26632 -1.84287,-5.41462 -3.14844,-9.15625 -2.61114,-7.48326 -6.10785,-17.3382 -9.64844,-27.2207 -3.54059,-9.8825 -7.1246,-19.79231 -9.91601,-27.38867 -1.39571,-3.79818 -2.59363,-7.01656 -3.48828,-9.36719 -0.44733,-1.17531 -0.81894,-2.13373 -1.10352,-2.8418 -0.28458,-0.70806 -0.43715,-1.09981 -0.61523,-1.40429 -2.86329,-4.89551 -9.23852,-10.56735 -14.72461,-13.138675 l -4.69141,-2.199219 H 256 Z m 0.35351,1.585938 H 256 355.29102 l 4.37304,2.048828 c 5.08703,2.384288 11.42466,8.050618 14.0293,12.503908 0.002,0.004 0.23358,0.50328 0.51172,1.19531 0.27814,0.69203 0.64644,1.64237 1.09179,2.8125 0.89071,2.34025 2.08791,5.55662 3.48243,9.35156 2.78903,7.58989 6.37263,17.49757 9.91211,27.37696 3.53947,9.87938 7.0338,19.73056 9.64257,27.20703 1.30439,3.73823 2.38901,6.88401 3.14454,9.13867 0.37776,1.12733 0.6737,2.03345 0.87304,2.67383 0.0192,0.0617 0.0256,0.0878 0.043,0.14453 -0.4948,0.009 -1.11544,0.0169 -1.99414,0.0254 -1.97084,0.0189 -4.88048,0.0372 -8.625,0.0547 -7.48903,0.0349 -18.32046,0.0673 -31.6875,0.0937 -26.73408,0.053 -63.60904,0.0859 -104.17187,0.0859 -58.83418,0 -95.69161,-0.0504 -117.79883,-0.19921 -11.05361,-0.0744 -18.42129,-0.17512 -22.9961,-0.30469 -2.2874,-0.0648 -3.87994,-0.13599 -4.86718,-0.21485 -0.21253,-0.017 -0.27951,-0.0334 -0.43555,-0.0508 0.17818,-0.50365 0.35864,-1.01402 0.89844,-2.55468 0.71845,-2.05059 1.73363,-4.95074 2.9707,-8.48829 2.47414,-7.07509 5.83721,-16.69813 9.49023,-27.16015 3.65172,-10.45824 7.18664,-20.33536 9.93946,-27.82031 1.3764,-3.74248 2.55644,-6.88632 3.45703,-9.20313 0.90059,-2.31681 1.58506,-3.90335 1.73828,-4.16601 2.59432,-4.44742 8.93241,-10.11579 14.02344,-12.501958 z m 94.125,113.453126 c -10.90424,0.0695 -22.70825,2.23444 -34.14257,6.46094 l -5.86719,2.16992 v 10.76367 c 0,2.91492 -0.004,5.10148 0.0918,6.72266 0.0955,1.62117 0.21218,2.68599 0.82421,3.47656 0.30602,0.39528 0.80949,0.66347 1.29883,0.69531 0.48934,0.0318 0.94607,-0.10002 1.4336,-0.29883 0.97505,-0.39761 2.11973,-1.11544 3.64843,-2.05468 6.94519,-4.26719 15.7652,-7.24441 24.19141,-8.54883 8.42621,-1.30442 16.46393,-0.91356 21.77344,1.37304 4.53136,1.95149 9.74231,7.03231 11.41015,11.03907 0.66453,1.59642 1.11701,4.70654 1.19532,8.04297 0.0783,3.33642 -0.19203,6.9396 -0.81055,9.65234 -1.23569,5.41953 -4.75718,11.93845 -10.32031,18.94531 -7.19103,9.05722 -25.09269,26.54237 -42.4043,41.375 l -15.50391,13.2832 v 10.50196 10.92773 H 256 304.34766 v -9.10547 -9.10351 l -37.66993,-0.20899 -34.74609,-0.19531 10.47461,-8.91797 c 14.8451,-12.64078 35.72796,-32.83972 41.97266,-40.65234 8.40124,-10.51066 12.05312,-18.54511 13.625,-30.02539 1.03938,-7.59123 0.14254,-15.89041 -2.48243,-22.90625 -2.28456,-6.10606 -9.49234,-13.87426 -15.94336,-17.29688 -7.83646,-4.15768 -17.8399,-6.1847 -28.74414,-6.11523 z m 0.008,1.61328 c 10.70021,-0.0659 20.46532,1.90789 27.99414,5.90234 5.98519,3.17548 13.1546,10.98646 15.19922,16.45118 2.52217,6.74111 3.39989,14.82055 2.39843,22.13476 -1.54114,11.2559 -4.99583,18.87155 -13.29297,29.25195 -5.99589,7.50136 -26.9937,27.86041 -41.76171,40.43555 l -13.72657,11.6875 39.01563,0.2168 36.09375,0.20312 v 7.52539 7.52149 H 256 209.23828 v -9.34375 -9.77149 l 14.94922,-12.81054 c 17.36847,-14.88135 35.24712,-32.31154 42.61523,-41.5918 5.65727,-7.12542 9.30632,-13.79459 10.625,-19.57813 0.66325,-2.90891 0.92855,-6.5965 0.84766,-10.04296 -0.0809,-3.44647 -0.48274,-6.61248 -1.31641,-8.61524 -1.91985,-4.61218 -7.22903,-9.72411 -12.24609,-11.88476 -5.77423,-2.48674 -14.02225,-2.81885 -22.64258,-1.48438 -8.62033,1.33447 -17.60546,4.356 -24.77929,8.76367 -1.53013,0.94012 -2.67572,1.63757 -3.41602,1.93946 -0.37015,0.15094 -0.62761,0.19041 -0.73242,0.18359 -0.10482,-0.007 -0.0756,0.0121 -0.14844,-0.082 -0.14569,-0.1882 -0.40568,-1.06536 -0.49609,-2.59961 -0.0904,-1.53425 -0.0899,-3.71531 -0.0899,-6.63086 v -9.66016 l 4.83203,-1.78515 c 11.26558,-4.16413 22.90135,-6.27005 33.60157,-6.33594 z M 95.917969,255.60352 c -4.253112,0 -6.647754,0.0356 -8.601563,0.36328 -1.953808,0.32769 -3.408971,0.95676 -5.634765,2.04687 -18.021109,8.82605 -24.338945,31.76809 -13.291016,48.3125 6.799301,10.18203 16.076049,14.81757 28.830078,14.42578 6.550637,-0.20121 8.132187,-0.5837 13.550777,-3.26172 24.37452,-12.04653 24.28117,-47.20679 -0.15429,-59.23632 -2.49278,-1.2272 -4.00459,-1.91635 -5.98828,-2.27149 -1.9837,-0.35513 -4.35963,-0.3789 -8.710941,-0.3789 z m 320.164061,0 c -4.35131,0 -6.72724,0.0238 -8.71094,0.3789 -1.98369,0.35514 -3.4955,1.04429 -5.98828,2.27149 -20.15932,9.92439 -24.72196,37.17648 -8.87304,53.02539 6.98715,6.98716 14.37028,9.79937 24.80273,9.46679 5.78283,-0.18436 8.2745,-0.68501 12.06445,-2.42968 6.4652,-2.97621 10.45648,-6.33573 14.23242,-11.99024 8.70518,-13.0361 6.88699,-30.61211 -4.31445,-41.82031 -2.29755,-2.29893 -6.22622,-5.14518 -8.97656,-6.49219 -2.2258,-1.09011 -3.68096,-1.71918 -5.63477,-2.04687 -1.9538,-0.32769 -4.34845,-0.36328 -8.60156,-0.36328 z m -320.164061,1.58593 c 4.343861,0 6.656661,0.0357 8.431641,0.35352 1.77498,0.31777 3.09207,0.91373 5.56836,2.13281 23.34184,11.49115 23.43001,44.88814 0.15234,56.39258 -5.37204,2.65501 -6.39186,2.89779 -12.898435,3.09766 -12.356465,0.37957 -20.904549,-3.89756 -27.462891,-13.71875 -10.517077,-15.74946 -4.508501,-37.59644 12.669922,-46.00977 2.198892,-1.07693 3.439918,-1.61314 5.199219,-1.9082 1.759301,-0.29507 4.096806,-0.33985 8.339844,-0.33985 z m 320.164061,0 c 4.24304,0 6.58054,0.0448 8.33984,0.33985 1.75931,0.29506 3.00033,0.83127 5.19922,1.9082 2.48062,1.21491 6.44025,4.0757 8.55274,6.18945 10.67654,10.683 12.40028,27.41628 4.11719,39.82032 -3.65418,5.47215 -7.29198,8.5368 -13.57618,11.42968 -3.66377,1.68659 -5.74097,2.10305 -11.45312,2.28516 -10.13281,0.32302 -16.88152,-2.25457 -23.63086,-9.00391 -15.09951,-15.09951 -10.76241,-41.02361 8.45117,-50.48242 2.47629,-1.21908 3.79338,-1.81504 5.56836,-2.13281 1.77498,-0.31777 4.08778,-0.35352 8.43164,-0.35352 z"
     id="path8" />
  <path
     style="fill:#ffffff;stroke-width:11.8885;stroke-dashoffset:6"
     d="m 86.22051,317.49859 c -8.062038,-2.60508 -15.068935,-8.97938 -18.622539,-16.94127 -6.632478,-14.86015 0.03083,-32.99509 14.916425,-40.59671 3.495959,-1.78528 4.807549,-1.9792 13.386529,-1.9792 8.478745,0 9.940875,0.21028 13.473685,1.93774 5.13212,2.50948 12.2559,9.67974 14.58382,14.67897 7.20412,15.47093 0.70816,33.8346 -14.6011,41.27642 -4.06187,1.97447 -5.8128,2.33175 -12.267551,2.50323 -4.72412,0.12549 -8.773768,-0.20207 -10.869269,-0.87918 z"
     id="path3" />
  <path
     style="fill:#ffffff;stroke-width:11.8885;stroke-dashoffset:6"
     d="m 209.63467,344.09906 v -9.38699 l 13.25146,-11.41797 c 16.59349,-14.29758 36.88518,-34.01346 43.56438,-42.32817 2.80135,-3.4873 6.58918,-9.34473 8.4174,-13.01649 l 3.32403,-6.67594 v -9.17545 c 0,-8.63247 -0.13196,-9.39995 -2.22985,-12.96895 -2.75357,-4.68448 -8.28357,-8.87305 -13.95189,-10.56755 -3.25312,-0.97249 -6.42127,-1.19466 -13.0774,-0.91707 -10.7814,0.44963 -19.41024,2.68619 -28.74988,7.45185 -3.73714,1.90692 -6.92601,3.46713 -7.08639,3.46713 -0.16037,0 -0.29158,-4.08369 -0.29158,-9.07486 v -9.07485 l 8.52012,-2.75301 c 9.10088,-2.94066 22.35461,-5.25208 30.11554,-5.25208 6.24985,0 17.12551,1.93273 22.54431,4.00639 9.33518,3.57237 17.68618,12.20109 20.46211,21.1426 1.20569,3.88364 1.66191,7.44387 1.65232,12.89435 -0.0221,12.55488 -3.30649,21.71727 -11.82903,32.99904 -5.92467,7.84282 -27.73887,29.17727 -44.79147,43.80638 l -12.55828,10.77353 37.72237,0.20583 37.72237,0.20582 v 7.52173 7.52172 h -46.36532 -46.36532 z"
     id="path4" />
  <path
     style="fill:#ffffff;stroke-width:11.8885;stroke-dashoffset:6"
     d="m 405.63701,317.17299 c -14.15424,-5.01385 -22.99062,-20.29569 -20.05589,-34.68511 1.97333,-9.67552 8.62371,-18.40766 17.25774,-22.65991 3.29505,-1.62281 4.90178,-1.84656 13.26019,-1.84656 8.58078,0 9.89066,0.19377 13.39486,1.98143 2.13621,1.08978 5.56483,3.58638 7.61917,5.54799 15.76223,15.05081 11.90275,40.83384 -7.54034,50.37282 -4.09328,2.0082 -5.80381,2.36203 -12.28483,2.54118 -5.70754,0.15776 -8.52668,-0.14514 -11.6509,-1.25184 z"
     id="path5" />
  <path
     style="fill:#ffffff;stroke-width:11.8885;stroke-dashoffset:6"
     d="m 163.01959,191.22657 -52.55934,-0.22864 0.54718,-1.77761 c 1.32118,-4.29201 19.57759,-55.95783 23.43429,-66.31925 4.90085,-13.16667 7.99859,-17.34831 16.62553,-22.44287 l 5.0329,-2.972136 h 99.89984 99.89983 l 5.03292,2.972136 c 8.6465,5.10612 11.72873,9.27499 16.59331,22.44331 8.79918,23.81922 24.14302,67.34515 23.83512,67.61318 -0.49761,0.43316 -179.50529,0.96783 -238.34158,0.71188 z"
     id="path6" />
</svg>
