<?xml version="1.0" encoding="UTF-8" standalone="no"?>
<svg
   width="512"
   height="512"
   viewBox="0 0 512 512"
   version="1.1"
   id="svg1"
   sodipodi:docname="car_3_yellow.svg"
   inkscape:version="1.4.2 (f4327f4, 2025-05-13)"
   xmlns:inkscape="http://www.inkscape.org/namespaces/inkscape"
   xmlns:sodipodi="http://sodipodi.sourceforge.net/DTD/sodipodi-0.dtd"
   xmlns="http://www.w3.org/2000/svg"
   xmlns:svg="http://www.w3.org/2000/svg">
  <defs
     id="defs1" />
  <sodipodi:namedview
     id="namedview1"
     pagecolor="#ffffff"
     bordercolor="#000000"
     borderopacity="0.25"
     inkscape:showpageshadow="2"
     inkscape:pageopacity="0.0"
     inkscape:pagecheckerboard="0"
     inkscape:deskcolor="#d1d1d1"
     inkscape:zoom="1.2617188"
     inkscape:cx="255.60371"
     inkscape:cy="218.74922"
     inkscape:window-width="1440"
     inkscape:window-height="890"
     inkscape:window-x="-6"
     inkscape:window-y="-6"
     inkscape:window-maximized="1"
     inkscape:current-layer="svg1" />
  <path
     fill="#000000"
     d="M135.2 117.4L109.1 192h293.8l-26.1-74.6c-4.5-12.8-16.6-21.4-30.2-21.4H165.4c-13.6 0-25.7 8.6-30.2 21.4zm-95.6 79.4L74.8 96.3C88.3 57.8 124.6 32 165.4 32h181.2c40.8 0 77.1 25.8 90.6 64.3l35.2 100.5c23.2 9.6 39.6 32.5 39.6 59.2v192c0 17.7-14.3 32-32 32h-32c-17.7 0-32-14.3-32-32v-48H96v48c0 17.7-14.3 32-32 32H32c-17.7 0-32-14.3-32-32V256c0-26.7 16.4-49.6 39.6-59.2zM128 288a32 32 0 1 0-64 0a32 32 0 1 0 64 0zm288 32a32 32 0 1 0 0-64a32 32 0 1 0 0 64z"
     id="path1" />
  <text
     xml:space="preserve"
     style="font-size:192px;font-family:codicon;-inkscape-font-specification:codicon;text-align:start;letter-spacing:1.1px;word-spacing:0px;writing-mode:lr-tb;direction:ltr;text-anchor:start;fill:#c3c3c3;stroke-width:10;stroke-dasharray:none"
     x="194.35938"
     y="354.03125"
     id="text1"><tspan
       sodipodi:role="line"
       id="tspan1"
       x="194.35938"
       y="354.03125"
       style="fill:#ffffff;fill-opacity:1;stroke:none;stroke-width:10;stroke-dasharray:none;stroke-opacity:1">3</tspan></text>
  <path
     style="fill:#ffde05;fill-opacity:1;stroke:#757575;stroke-width:1.58514;stroke-dasharray:none;stroke-opacity:1"
     d="M 23.721094,478.44856 C 11.685648,475.1116 2.4085014,464.09681 0.74089768,451.16408 -0.20189143,443.85249 -0.15379743,260.77545 0.79347065,251.03752 1.966353,238.98027 4.5454276,231.43124 10.827818,221.66669 c 6.301201,-9.7938 14.724717,-17.36743 24.837817,-22.33181 l 4.359133,-2.13985 18.14002,-52.03404 C 68.1418,116.54226 77.82973,90.02009 79.693529,86.222835 87.255436,70.816374 98.618539,57.915761 112.98359,48.428402 c 12.31887,-8.13596 25.96371,-13.281581 40.15609,-15.143313 4.5125,-0.591941 38.0127,-0.785872 107.21945,-0.620689 l 100.65635,0.240247 7.52941,2.081786 c 29.94427,8.279208 50.99064,25.211154 63.81143,51.336731 1.83638,3.742074 11.50188,30.240796 21.47889,58.886036 17.5616,50.42153 18.21584,52.11287 20.51773,53.04224 4.21647,1.70237 13.15174,7.79725 17.60377,12.00779 4.66046,4.40766 11.72509,14.51968 14.32185,20.4997 2.68297,6.17856 4.13934,12.17154 4.92797,20.27859 0.94727,9.73793 0.99536,192.81497 0.0526,200.12656 -1.43685,11.14306 -8.03371,20.3799 -18.0914,25.33128 l -5.30776,2.613 H 464.0662 440.27245 l -5.15171,-2.4463 c -5.83772,-2.77206 -11.44325,-7.8403 -14.56722,-13.17096 -3.79587,-6.47716 -4.42556,-12.04538 -4.44069,-39.26819 l -0.0138,-24.7678 H 256 95.900929 l -0.01376,24.7678 c -0.01512,27.21129 -0.645334,32.79192 -4.433048,39.25516 -3.219204,5.49316 -8.533495,10.32768 -14.415787,13.11436 l -5.310781,2.51593 -22.19195,0.1723 c -15.953155,0.12385 -23.210357,-0.11008 -25.814509,-0.8321 z M 268.92994,355.12479 c 15.80053,-4.08157 27.31934,-15.01108 31.79799,-30.17123 1.5243,-5.15972 1.75282,-18.1408 0.40732,-23.13761 -3.12502,-11.60543 -10.92874,-18.94703 -24.74874,-23.28318 l -4.57945,-1.43684 4.8018,-1.73869 c 8.79489,-3.18455 16.66937,-10.26872 20.44362,-18.39183 1.78044,-3.83197 2.10853,-5.63375 2.12412,-11.6651 0.0302,-11.66686 -3.98465,-19.61309 -13.05895,-25.8466 -14.7653,-10.14289 -43.06312,-10.77954 -67.56657,-1.52013 l -4.55727,1.72211 v 10.24646 c 0,5.63555 0.24824,10.24646 0.55164,10.24646 0.30341,0 3.60248,-1.55999 7.33127,-3.46662 12.43827,-6.36007 22.90109,-8.8518 34.59937,-8.23991 6.60283,0.34537 8.24199,0.73879 12.82901,3.07911 4.19479,2.1402 5.74631,3.47271 7.66734,6.58504 2.10281,3.40685 2.40393,4.61353 2.37343,9.51084 -0.0859,13.79271 -9.95435,21.29582 -29.48828,22.42035 l -8.12384,0.46767 v 7.68549 7.68548 l 9.08358,0.5188 c 14.54385,0.83066 19.74292,2.32397 24.86822,7.14278 4.37665,4.11495 5.91658,7.95857 6.31142,15.75313 0.4293,8.47498 -0.64138,13.14778 -4.27879,18.67394 -3.30352,5.0189 -8.18634,8.32211 -15.67164,10.6018 -4.64566,1.41484 -6.74161,1.59361 -14.26626,1.21676 -10.83314,-0.54256 -18.0749,-2.49191 -28.69631,-7.72453 -4.39299,-2.1642 -8.40537,-3.9349 -8.91641,-3.9349 -1.3538,0 -1.29554,19.326 0.0615,20.41555 2.54537,2.04356 22.0487,7.259 31.50465,8.42474 6.06101,0.74721 21.12793,-0.2718 27.19619,-1.83934 z M 110.42073,316.77936 c 23.82609,-11.77549 23.73499,-46.05379 -0.15366,-57.81413 -4.96907,-2.44627 -5.6543,-2.56895 -14.349473,-2.56895 -8.496149,0 -9.461951,0.16199 -13.886637,2.32903 -17.599766,8.61969 -23.764165,31.0145 -12.981662,47.16143 6.678821,10.00161 15.59241,14.4579 28.147657,14.07222 6.528605,-0.20054 7.828455,-0.51309 13.223775,-3.1796 z m 318.62567,0.81797 c 6.3747,-2.93454 10.18925,-6.14726 13.90431,-11.71059 8.49413,-12.72007 6.72186,-29.87528 -4.21713,-40.82088 -2.20502,-2.20634 -6.14906,-5.05959 -8.76454,-6.34055 -4.42469,-2.16704 -5.39049,-2.32903 -13.88664,-2.32903 -8.69517,0 -9.3804,0.12268 -14.34947,2.56895 -19.68645,9.6916 -24.13668,36.27926 -8.66247,51.75347 6.86825,6.86825 13.93484,9.56308 24.21747,9.23528 5.74749,-0.18324 8.03161,-0.64102 11.75847,-2.35665 z M 403.41796,192.30218 c 0,-1.55958 -27.5992,-78.59449 -29.04132,-81.06015 -2.73396,-4.6744 -9.09062,-10.34288 -14.37718,-12.820685 l -4.53197,-2.124131 H 256 156.53251 l -4.53197,2.124131 c -5.29058,2.479695 -11.64807,8.150915 -14.3721,12.820685 -1.05371,1.80636 -7.89347,20.40379 -15.19946,41.32763 -7.30599,20.92384 -13.44852,38.48916 -13.65007,39.03406 -0.29234,0.79033 29.46703,0.99071 147.13629,0.99071 81.12652,0 147.50276,-0.13151 147.50276,-0.29225 z"
     id="path2" />
  <path
     style="fill:#ffffff;stroke-width:11.8885;stroke-dashoffset:6"
     d="m 86.22051,317.49859 c -8.062038,-2.60508 -15.068935,-8.97938 -18.622539,-16.94127 -6.632478,-14.86015 0.03083,-32.99509 14.916425,-40.59671 3.495959,-1.78528 4.807549,-1.9792 13.386529,-1.9792 8.478745,0 9.940875,0.21028 13.473685,1.93774 5.13212,2.50948 12.2559,9.67974 14.58382,14.67897 7.20412,15.47093 0.70816,33.8346 -14.6011,41.27642 -4.06187,1.97447 -5.8128,2.33175 -12.267551,2.50323 -4.72412,0.12549 -8.773768,-0.20207 -10.869269,-0.87918 z"
     id="path3" />
  <path
     style="fill:#ffffff;stroke-width:11.8885;stroke-dashoffset:6"
     d="m 231.82662,353.89349 c -11.95103,-2.83527 -18.74207,-4.99647 -20.16199,-6.41639 -1.62503,-1.62503 -1.85836,-18.19852 -0.24668,-17.52166 0.54489,0.22884 4.56029,2.03559 8.92312,4.015 12.09995,5.48976 16.34186,6.40634 29.71465,6.42069 10.17194,0.0109 12.01143,-0.19713 16.0112,-1.81096 6.00096,-2.42124 11.89626,-7.83606 14.66095,-13.46604 2.0225,-4.11857 2.21949,-5.2935 2.21949,-13.23798 0,-7.9464 -0.19669,-9.11879 -2.22154,-13.24218 -3.9714,-8.08731 -9.88635,-11.36981 -22.74441,-12.622 -4.57709,-0.44574 -9.83777,-0.98283 -11.6904,-1.19352 l -3.36842,-0.38308 v -6.24343 -6.24343 l 3.36842,-0.37978 c 18.40409,-2.07503 23.94735,-3.92825 29.03357,-9.70651 3.63909,-4.13422 4.85284,-7.9164 4.83575,-15.06873 -0.0156,-6.53516 -1.88704,-10.44488 -6.78927,-14.18393 -5.5019,-4.19644 -10.82234,-5.37885 -22.38234,-4.97423 -8.62035,0.30172 -11.08459,0.70521 -17.3483,2.84058 -4.01542,1.36889 -9.81108,3.75308 -12.87926,5.29819 l -5.57851,2.80929 v -9.02788 -9.02789 l 4.55728,-1.68322 c 23.92256,-8.83578 50.69344,-8.1366 65.32373,1.70607 9.20475,6.19258 12.54624,12.89444 12.54624,25.16338 0,6.04478 -0.28438,7.43176 -2.38608,11.63763 -3.99742,7.99954 -11.33619,13.91574 -22.41851,18.0728 -2.09082,0.78429 -3.51745,1.68371 -3.17028,1.99873 0.34717,0.31501 3.12781,1.37935 6.1792,2.36518 7.90729,2.55467 11.20802,4.38574 15.89297,8.81658 6.01897,5.69248 8.50507,11.64045 8.92079,21.34283 0.39912,9.31512 -0.70187,14.91675 -4.37492,22.25875 -3.59242,7.18082 -9.9873,13.63044 -17.34402,17.4925 -8.20649,4.30815 -13.28311,5.40636 -26.87191,5.81311 -10.66388,0.31919 -12.74581,0.15247 -20.21052,-1.61847 z"
     id="path4" />
  <path
     style="fill:#ffffff;stroke-width:11.8885;stroke-dashoffset:6"
     d="m 405.63701,317.17299 c -14.15424,-5.01385 -22.99062,-20.29569 -20.05589,-34.68511 1.97333,-9.67552 8.62371,-18.40766 17.25774,-22.65991 3.29505,-1.62281 4.90178,-1.84656 13.26019,-1.84656 8.58078,0 9.89066,0.19377 13.39486,1.98143 2.13621,1.08978 5.56483,3.58638 7.61917,5.54799 15.76223,15.05081 11.90275,40.83384 -7.54034,50.37282 -4.09328,2.0082 -5.80381,2.36203 -12.28483,2.54118 -5.70754,0.15776 -8.52668,-0.14514 -11.6509,-1.25184 z"
     id="path5" />
  <path
     style="fill:#ffffff;stroke-width:11.8885;stroke-dashoffset:6"
     d="m 163.01959,191.22657 -52.55934,-0.22864 0.54718,-1.77761 c 1.32118,-4.29201 19.57759,-55.95783 23.43429,-66.31925 4.90085,-13.16667 7.99859,-17.34831 16.62553,-22.44287 l 5.0329,-2.972136 h 99.89984 99.89983 l 5.03292,2.972136 c 8.6465,5.10612 11.72873,9.27499 16.59331,22.44331 8.79918,23.81922 24.14302,67.34515 23.83512,67.61318 -0.49761,0.43316 -179.50529,0.96783 -238.34158,0.71188 z"
     id="path6" />
</svg>
