<?xml version="1.0" encoding="UTF-8" standalone="no"?>
<svg
   width="512"
   height="512"
   viewBox="0 0 56 56"
   version="1.1"
   id="svg1"
   sodipodi:docname="house-blue.svg"
   inkscape:version="1.4.2 (f4327f4, 2025-05-13)"
   xmlns:inkscape="http://www.inkscape.org/namespaces/inkscape"
   xmlns:sodipodi="http://sodipodi.sourceforge.net/DTD/sodipodi-0.dtd"
   xmlns="http://www.w3.org/2000/svg"
   xmlns:svg="http://www.w3.org/2000/svg">
  <defs
     id="defs1" />
  <sodipodi:namedview
     id="namedview1"
     pagecolor="#ffffff"
     bordercolor="#000000"
     borderopacity="0.25"
     inkscape:showpageshadow="2"
     inkscape:pageopacity="0.0"
     inkscape:pagecheckerboard="0"
     inkscape:deskcolor="#d1d1d1"
     inkscape:zoom="1.2617188"
     inkscape:cx="256"
     inkscape:cy="256"
     inkscape:window-width="1440"
     inkscape:window-height="890"
     inkscape:window-x="-6"
     inkscape:window-y="-6"
     inkscape:window-maximized="1"
     inkscape:current-layer="svg1" />
  <path
     fill="#000000"
     d="M.625 27.824c0 1.125.89 1.805 1.992 1.805c.68 0 1.219-.328 1.688-.797L27.18 7.996c.257-.258.539-.352.843-.352c.282 0 .54.094.82.352l22.852 20.836c.492.469 1.031.797 1.688.797c1.101 0 1.992-.68 1.992-1.805c0-.703-.258-1.148-.703-1.547l-8.11-7.382V5.043c0-1.031-.656-1.687-1.687-1.687h-3.07c-1.008 0-1.711.656-1.711 1.687v7.969l-9.282-8.485C29.992 3.754 28.984 3.38 28 3.38c-.985 0-1.969.375-2.813 1.148L1.328 26.277c-.422.399-.703.844-.703 1.547m6.703 19.664c0 3.258 1.969 5.157 5.273 5.157h9.493V35.98c0-1.078.726-1.78 1.804-1.78h8.274c1.078 0 1.781.702 1.781 1.78v16.665h9.469c3.304 0 5.25-1.899 5.25-5.157V30.332l-19.899-17.93c-.258-.234-.539-.351-.82-.351c-.258 0-.516.117-.797.375L7.328 30.449Z"
     id="path1" />
  <path
     style="fill:#9e2b35;stroke:none;stroke-width:1.58514"
     d="M 17.040248,269.30998 C 7.9447599,266.13063 3.7510395,255.83503 7.8629752,246.77973 9.3031488,243.60818 27.281815,227.05434 216.24613,54.91119 c 15.33724,-13.971953 19.53065,-17.362548 24.52856,-19.832648 5.91709,-2.924388 6.19781,-2.979471 15.18421,-2.979471 8.88211,0 9.33325,0.08522 15.09992,2.852471 6.36371,3.053744 3.39391,0.453749 68.55728,60.020496 14.38514,13.149662 26.40953,23.909582 26.72087,23.910942 0.31133,10e-4 0.66799,-17.56286 0.79257,-39.031587 0.22426,-38.648581 0.24372,-39.061748 1.97062,-41.838238 0.95927,-1.542301 3.27754,-3.682239 5.1517,-4.755418 3.27806,-1.877068 4.04425,-1.960873 20.15736,-2.204788 18.19156,-0.275377 21.68482,0.2067 25.64513,3.539084 5.46866,4.601577 5.11703,-0.02258 5.55556,73.057217 l 0.39628,66.03935 38.04335,34.617 c 41.15885,37.45192 41.62614,37.96516 41.5925,45.68277 -0.0449,10.29799 -7.85816,16.93067 -18.99524,16.12508 -3.36209,-0.24319 -5.51908,-0.9512 -8.11918,-2.66503 -1.94742,-1.28363 -51.24357,-45.84594 -109.547,-99.02737 -58.30343,-53.18142 -106.77299,-97.126678 -107.71014,-97.656123 -2.54187,-1.436028 -8.55794,-1.243641 -10.84026,0.346659 -1.07779,0.751 -41.90514,37.748034 -90.72743,82.215634 -48.82229,44.4676 -96.957702,88.3083 -106.967575,97.4238 -10.009874,9.11548 -19.639595,17.22765 -21.399381,18.02702 -3.544256,1.60995 -10.473926,1.86781 -14.295586,0.53194 z"
     id="path2"
     transform="scale(0.109375)" />
  <path
     style="fill:#577f8d;stroke:none;stroke-width:1.58514"
     d="m 103.43034,479.82955 c -13.305148,-2.34601 -25.355049,-10.7287 -30.528593,-21.23766 -5.386602,-10.94174 -5.05745,-4.92858 -5.2978,-96.78384 l -0.217753,-83.21981 86.799546,-78.86069 c 107.50625,-97.6735 97.33337,-88.7678 101.39845,-88.7678 2.16225,0 4.09256,0.60703 5.67071,1.78328 1.31591,0.98081 43.12482,38.4941 92.90868,83.36287 l 90.51612,81.57958 -0.25266,83.67119 c -0.23496,77.81467 -0.3524,84.00405 -1.67778,88.42661 -4.50934,15.04685 -14.5292,24.79812 -30.21675,29.40677 -4.25992,1.25147 -9.81362,1.42786 -53.30031,1.69287 l -48.54489,0.29584 -0.0174,-78.31074 c -0.0165,-74.26234 -0.0926,-78.47634 -1.47235,-81.51381 -1.77556,-3.90886 -5.49007,-7.15935 -9.43269,-8.25431 -1.85442,-0.51503 -18.23178,-0.81738 -44.16114,-0.81529 l -41.21363,0.003 -4.0858,1.90238 c -3.15702,1.46994 -4.59834,2.77437 -6.34055,5.73839 l -2.25476,3.83601 -0.21673,78.66253 -0.21673,78.66254 -45.75231,-0.0711 c -35.59716,-0.0553 -47.15966,-0.31927 -52.09287,-1.18911 z"
     id="path3"
     transform="scale(0.109375)" />
</svg>
