<?xml version="1.0" encoding="UTF-8" standalone="no"?>
<!-- Created with Inkscape (http://www.inkscape.org/) -->

<svg
   width="512"
   height="512"
   viewBox="0 0 135.46666 135.46667"
   version="1.1"
   id="svg1"
   sodipodi:docname="street_4.svg"
   inkscape:version="1.4.2 (f4327f4, 2025-05-13)"
   xmlns:inkscape="http://www.inkscape.org/namespaces/inkscape"
   xmlns:sodipodi="http://sodipodi.sourceforge.net/DTD/sodipodi-0.dtd"
   xmlns="http://www.w3.org/2000/svg"
   xmlns:svg="http://www.w3.org/2000/svg">
  <sodipodi:namedview
     id="namedview1"
     pagecolor="#ffffff"
     bordercolor="#000000"
     borderopacity="0.25"
     inkscape:showpageshadow="2"
     inkscape:pageopacity="0.0"
     inkscape:pagecheckerboard="0"
     inkscape:deskcolor="#d1d1d1"
     inkscape:document-units="mm"
     inkscape:zoom="0.81386721"
     inkscape:cx="278.91528"
     inkscape:cy="226.08111"
     inkscape:window-width="1440"
     inkscape:window-height="890"
     inkscape:window-x="-6"
     inkscape:window-y="-6"
     inkscape:window-maximized="1"
     inkscape:current-layer="layer1" />
  <defs
     id="defs1" />
  <g
     inkscape:label="Layer 1"
     inkscape:groupmode="layer"
     id="layer1">
    <rect
       style="fill:#000000;fill-opacity:1;stroke:none;stroke-width:0.419365"
       id="rect1"
       width="135.46666"
       height="135.46666"
       x="3.5603841e-06"
       y="3.5603841e-06"
       ry="0" />
    <g
       id="g10">
      <path
         style="fill:none;fill-opacity:1;stroke:#ffffff;stroke-width:3.96875;stroke-dasharray:none;stroke-dashoffset:41.7039;stroke-opacity:1"
         d="M 67.733333,11.377083 C 67.733333,0 67.733333,0 67.733333,0"
         id="path3" />
      <path
         style="fill:none;fill-opacity:1;stroke:#ffffff;stroke-width:3.96875;stroke-dasharray:none;stroke-dashoffset:41.7039;stroke-opacity:1"
         d="m 67.733333,135.46667 c 0,-11.1125 0,-11.1125 0,-11.1125"
         id="path4" />
      <path
         style="fill:none;fill-opacity:1;stroke:#ffffff;stroke-width:3.96875;stroke-dasharray:none;stroke-dashoffset:41.7039;stroke-opacity:1"
         d="m 67.733333,101.6882 c 0,-22.489589 0,-22.489589 0,-22.489589"
         id="path8" />
      <path
         style="fill:none;fill-opacity:1;stroke:#ffffff;stroke-width:3.96875;stroke-dasharray:none;stroke-dashoffset:41.7039;stroke-opacity:1"
         d="m 67.733333,56.532639 c 0,-22.489584 0,-22.489584 0,-22.489584"
         id="path9" />
    </g>
    <path
       style="fill:none;fill-opacity:1;stroke:#ffffff;stroke-width:3.96875;stroke-dasharray:none;stroke-dashoffset:41.7039;stroke-opacity:1"
       d="m 124.18591,9.9650766 c 11.28076,0 11.28076,0 11.28076,0"
       id="path10" />
    <path
       style="fill:none;fill-opacity:1;stroke:#ffffff;stroke-width:3.96875;stroke-dasharray:none;stroke-dashoffset:41.7039;stroke-opacity:1"
       d="m 124.1859,125.50159 c 11.28077,0 11.28077,0 11.28077,0"
       id="path11" />
    <path
       style="fill:none;fill-opacity:1;stroke:#ffffff;stroke-width:3.96875;stroke-dasharray:none;stroke-dashoffset:41.7039;stroke-opacity:1"
       d="m 124.08958,67.733336 c 11.37709,0 11.37709,0 11.37709,0"
       id="path12" />
    <path
       style="fill:none;fill-opacity:1;stroke:#ffffff;stroke-width:3.96875;stroke-dasharray:none;stroke-dashoffset:41.7039;stroke-opacity:1"
       d="m 33.778467,67.733336 c 22.489589,0 22.489589,0 22.489589,0"
       id="path14" />
    <path
       style="fill:none;fill-opacity:1;stroke:#ffffff;stroke-width:3.96875;stroke-dasharray:none;stroke-dashoffset:41.7039;stroke-opacity:1"
       d="m 78.934028,67.733336 c 22.489582,0 22.489582,0 22.489582,0"
       id="path15" />
    <path
       style="fill:none;fill-opacity:1;stroke:#ffffff;stroke-width:3.96875;stroke-dasharray:none;stroke-dashoffset:41.7039;stroke-opacity:1"
       d="m 0,9.9650766 c 11.28076,0 11.28076,0 11.28076,0"
       id="path16" />
    <path
       style="fill:none;fill-opacity:1;stroke:#ffffff;stroke-width:3.96875;stroke-dasharray:none;stroke-dashoffset:41.7039;stroke-opacity:1"
       d="m 0,125.50159 c 11.28077,0 11.28077,0 11.28077,0"
       id="path17" />
    <path
       style="fill:none;fill-opacity:1;stroke:#ffffff;stroke-width:3.96875;stroke-dasharray:none;stroke-dashoffset:41.7039;stroke-opacity:1"
       d="m 9.9650772,135.46667 c 0,-11.28076 0,-11.28076 0,-11.28076"
       id="path18" />
    <path
       style="fill:none;fill-opacity:1;stroke:#ffffff;stroke-width:3.96875;stroke-dasharray:none;stroke-dashoffset:41.7039;stroke-opacity:1"
       d="m 125.50159,135.46667 c 0,-11.28077 0,-11.28077 0,-11.28077"
       id="path19" />
    <path
       style="fill:none;fill-opacity:1;stroke:#ffffff;stroke-width:3.96875;stroke-dasharray:none;stroke-dashoffset:41.7039;stroke-opacity:1"
       d="M 9.9650772,11.28076 C 9.9650772,0 9.9650772,0 9.9650772,0"
       id="path20" />
    <path
       style="fill:none;fill-opacity:1;stroke:#ffffff;stroke-width:3.96875;stroke-dasharray:none;stroke-dashoffset:41.7039;stroke-opacity:1"
       d="M 125.50159,11.28077 C 125.50159,0 125.50159,0 125.50159,0"
       id="path21" />
    <path
       style="fill:none;fill-opacity:1;stroke:#ffffff;stroke-width:3.96875;stroke-dasharray:none;stroke-dashoffset:41.7039;stroke-opacity:1"
       d="m 0,67.733336 c 11.37709,0 11.37709,0 11.37709,0"
       id="path22" />
  </g>
</svg>
